<svg width="84" height="83" viewBox="0 0 84 83" fill="none" xmlns="http://www.w3.org/2000/svg">
<path d="M80.2329 35.4124L83.2907 31.8559C83.2511 31.9067 83.2003 31.9519 83.1551 31.9971C82.8272 32.2963 82.4203 32.5051 82.0416 32.7422C76.4798 36.1407 70.9181 39.5447 65.3563 42.9431C65.0794 43.1125 64.8137 43.2988 64.4576 43.5359L61.3998 47.0924C61.7559 46.8553 62.0215 46.6746 62.2985 46.4996C67.8602 43.1012 73.422 39.6971 78.9837 36.2987C79.3624 36.0616 79.7694 35.8527 80.0972 35.5535C80.1481 35.5084 80.1933 35.4632 80.2329 35.4124Z" fill="url(#paint0_linear_9_1968)"/>
<mask id="mask0_9_1968" style="mask-type:luminance" maskUnits="userSpaceOnUse" x="61" y="31" width="23" height="17">
<path d="M80.2329 35.4124L83.2907 31.8559C83.2511 31.9067 83.2003 31.9519 83.1551 31.9971C82.8272 32.2963 82.4203 32.5051 82.0416 32.7422C76.4798 36.1407 70.9181 39.5447 65.3563 42.9431C65.0794 43.1125 64.8137 43.2988 64.4576 43.5359L61.3998 47.0924C61.7559 46.8553 62.0215 46.6746 62.2985 46.4996C67.8602 43.1012 73.422 39.6971 78.9837 36.2987C79.3624 36.0616 79.7694 35.8527 80.0972 35.5535C80.1481 35.5084 80.1933 35.4632 80.2329 35.4124Z" fill="white"/>
</mask>
<g mask="url(#mask0_9_1968)">
<path d="M64.4576 43.5359L61.3998 47.0924C61.7559 46.8553 62.0215 46.6746 62.2985 46.4996C67.8602 43.1012 73.422 39.6971 78.9837 36.2987C79.3624 36.0616 79.7694 35.8527 80.0972 35.5535C80.1481 35.5084 80.1933 35.4632 80.2329 35.4124L83.2907 31.8559C83.2511 31.9067 83.2003 31.9519 83.1551 31.9971C82.8272 32.2963 82.4203 32.5051 82.0416 32.7422C76.4798 36.1407 70.9181 39.5447 65.3563 42.9431C65.0794 43.1125 64.8137 43.2988 64.4576 43.5359Z" fill="url(#paint1_linear_9_1968)"/>
</g>
<path d="M77.2316 70.5313L80.2895 66.9748C78.4582 69.103 76.2764 71.2426 73.2073 73.3877L70.1494 76.9442C73.2186 74.799 75.4003 72.6595 77.2316 70.5313Z" fill="url(#paint2_linear_9_1968)"/>
<mask id="mask1_9_1968" style="mask-type:luminance" maskUnits="userSpaceOnUse" x="70" y="66" width="11" height="11">
<path d="M77.2316 70.5313L80.2895 66.9748C78.4582 69.103 76.2764 71.2426 73.2073 73.3877L70.1494 76.9442C73.2186 74.799 75.4003 72.6595 77.2316 70.5313Z" fill="white"/>
</mask>
<g mask="url(#mask1_9_1968)">
<path d="M73.2015 73.3877L70.1437 76.9442C73.2128 74.799 75.3946 72.6595 77.2259 70.5313L80.2837 66.9748C78.4524 69.103 76.2707 71.2425 73.2015 73.3877Z" fill="url(#paint3_linear_9_1968)"/>
</g>
<path d="M54.3911 56.7965L51.3333 60.353C51.7459 60.6917 52.0737 60.9514 52.3846 61.228C55.8606 64.299 59.3311 67.3756 62.8016 70.4523C65.0003 72.3998 67.1933 74.3475 69.392 76.2951C69.6407 76.5152 69.8838 76.7467 70.1438 76.9442L73.2016 73.3878C72.9416 73.1958 72.6985 72.9588 72.4498 72.7386C70.2511 70.791 68.0581 68.849 65.8594 66.8958C62.389 63.8191 58.9185 60.7425 55.4424 57.6715C55.1259 57.3949 54.8037 57.1352 54.3911 56.7965Z" fill="url(#paint4_linear_9_1968)"/>
<mask id="mask2_9_1968" style="mask-type:luminance" maskUnits="userSpaceOnUse" x="51" y="56" width="23" height="21">
<path d="M54.3911 56.7965L51.3333 60.353C51.7459 60.6917 52.0737 60.9514 52.3846 61.228C55.8606 64.299 59.3311 67.3756 62.8016 70.4523C65.0003 72.3998 67.1933 74.3475 69.392 76.2951C69.6407 76.5152 69.8838 76.7467 70.1438 76.9442L73.2016 73.3878C72.9416 73.1958 72.6985 72.9588 72.4498 72.7386C70.2511 70.791 68.0581 68.849 65.8594 66.8958C62.389 63.8191 58.9185 60.7425 55.4424 57.6715C55.1259 57.3949 54.8037 57.1352 54.3911 56.7965Z" fill="white"/>
</mask>
<g mask="url(#mask2_9_1968)">
<path d="M54.3911 56.7965L51.3333 60.353C51.7459 60.6917 52.0737 60.9514 52.3846 61.228C55.8606 64.299 59.3311 67.3756 62.8016 70.4522C65.0003 72.3998 67.1933 74.3475 69.392 76.2951C69.6125 76.487 69.8272 76.6959 70.0533 76.8765L73.1112 73.32C72.8851 73.1394 72.6703 72.9362 72.4498 72.7386C70.2511 70.791 68.0581 68.849 65.8594 66.8958C62.389 63.8191 58.9185 60.7425 55.4424 57.6715C55.1259 57.3949 54.8037 57.1352 54.3911 56.7965Z" fill="url(#paint5_linear_9_1968)"/>
<path d="M73.1113 73.3201L70.0535 76.8765C70.0817 76.8991 70.11 76.9217 70.1439 76.9443L73.2018 73.3878C73.1735 73.3652 73.1396 73.3426 73.1113 73.3201Z" fill="url(#paint6_linear_9_1968)"/>
</g>
<path d="M0.0113154 5.60568C0.00566323 5.54923 0 5.48713 0 5.43068C0 5.35729 0.0169607 5.27828 0.0395695 5.20489C0.0395695 5.20489 0.0395695 5.19924 0.0395695 5.19359C0.0508739 5.14843 0.0678111 5.10327 0.0904199 5.05811C0.0960721 5.04118 0.107399 5.02988 0.113051 5.01294C0.118703 5.00165 0.124337 4.99036 0.129989 4.97907C0.135642 4.96778 0.141316 4.95084 0.15262 4.93955C0.175229 4.90003 0.203469 4.86051 0.237382 4.82099C0.248687 4.80405 0.259995 4.79279 0.276952 4.77585L3.33477 1.21938C3.27825 1.28712 3.22741 1.35485 3.18784 1.42259C3.18219 1.43389 3.17652 1.44517 3.17087 1.45646C3.13696 1.51856 3.10869 1.58629 3.09173 1.64838C3.06912 1.72742 3.05781 1.80082 3.05216 1.87421C3.05216 1.9363 3.05217 2.00406 3.06348 2.06616C3.08043 2.16213 3.10305 2.25807 3.14262 2.35969C3.14827 2.38227 3.15956 2.40484 3.16521 2.42742C3.21043 2.53468 3.25565 2.64195 3.31218 2.74921C3.34044 2.80566 3.37434 2.86775 3.40825 2.92421C16.5948 27.176 29.7814 51.4335 42.9623 75.6854C43.5275 76.7297 44.0645 77.7967 44.7088 78.7959C44.7597 78.8806 44.8162 78.9539 44.8784 79.0273C47.3202 79.0499 47.5971 78.9935 47.648 78.9314L44.5901 82.4878C44.5336 82.5556 44.2623 82.6064 41.8206 82.5838C41.8092 82.5725 41.7979 82.5556 41.7923 82.5443C41.7471 82.4879 41.7018 82.4258 41.6623 82.3637C41.6623 82.3637 41.6623 82.358 41.6566 82.3524C41.0123 81.3531 40.481 80.2862 39.9101 79.2418C26.7236 54.99 13.5427 30.7325 0.356091 6.48068C0.32783 6.42423 0.293897 6.36779 0.265636 6.31133C0.265636 6.31133 0.265636 6.31133 0.265636 6.30568C0.209115 6.19842 0.158239 6.0912 0.118674 5.98394C0.118674 5.97265 0.107387 5.95571 0.101735 5.94442C0.101735 5.93313 0.10173 5.92745 0.0960776 5.91616C0.0621644 5.82019 0.0338952 5.72425 0.0169386 5.62829C0.0169386 5.62829 0.0169386 5.62263 0.0169386 5.61698L0.0113154 5.60568Z" fill="url(#paint7_linear_9_1968)"/>
<path d="M3.38572 1.16291C3.7305 0.795974 4.38616 0.412101 5.5392 0C30.8554 9.50654 56.1716 19.0074 81.4877 28.5083L81.6121 28.5535L81.7364 28.5987L81.8607 28.6495L81.9851 28.7003L82.1095 28.7511L82.2338 28.8075L82.3581 28.864L82.4824 28.9261C83.7203 29.6035 84.0651 31.1447 83.1494 31.9858L83.0251 32.0931L82.8951 32.1947L82.7595 32.2906L82.6182 32.3809L82.4769 32.4713L82.3299 32.5559C82.2338 32.6124 82.1377 32.6688 82.0416 32.7309L79.9559 34.0068L77.8703 35.2826L75.7846 36.5584L73.699 37.8342C70.9181 39.5334 68.1372 41.2326 65.3563 42.9375C65.2885 42.977 65.2207 43.0222 65.1529 43.0673C65.0172 43.1576 64.8759 43.2536 64.7176 43.3552L64.5933 43.4343L64.4633 43.519L64.5877 43.6375L64.7063 43.756L64.825 43.8746L64.9381 43.9875C65.0907 44.1343 65.232 44.281 65.3846 44.4109C71.0481 49.4408 76.7116 54.465 82.3807 59.4949L82.4994 59.6022L82.6182 59.7094L82.7368 59.8167L82.8555 59.9239L82.9743 60.0312L83.0873 60.1441L83.2003 60.257L83.3077 60.3756C83.3868 60.4659 83.4547 60.5562 83.5168 60.6465C83.579 60.7368 83.6356 60.8328 83.6808 60.9288C83.8221 61.2167 83.8842 61.5102 83.8786 61.8151C83.8786 61.9167 83.8616 62.0183 83.8446 62.1199C83.822 62.2215 83.7938 62.3288 83.7598 62.4304C83.7203 62.532 83.6751 62.6393 83.6185 62.7466C81.9568 64.9482 80.2951 67.1554 78.0398 69.3684C76.689 70.7006 75.1177 72.0329 73.2072 73.3652L73.1111 73.2918L73.015 73.2128L72.919 73.1337L72.8285 73.0547C72.8285 73.0547 72.8172 73.0434 72.8116 73.0378L72.7381 72.97L72.7212 72.9587C72.6364 72.8797 72.5459 72.8007 72.4555 72.7216L71.6303 71.9934L70.8051 71.2652L69.9798 70.5369L69.1546 69.8087L68.3294 69.0805L67.5041 68.3522L66.6789 67.624L65.8537 66.8958C62.3833 63.8191 58.9128 60.7425 55.4367 57.6715C55.1993 57.4626 54.962 57.2651 54.6793 57.0336L54.538 56.915L54.3854 56.7909L54.182 57.4626L53.9785 58.1288C53.5715 59.4498 53.1759 60.7312 52.7859 62.0183C51.1976 67.2796 49.6093 72.541 48.0267 77.8023C47.9984 77.8926 47.9702 77.9886 47.9476 78.0789L47.908 78.2201L47.8684 78.3612L47.8232 78.5023L47.778 78.6378L47.7271 78.7733L47.6706 78.9031C47.6367 78.9652 47.6028 79.0273 45.7941 79.0273H45.7715C45.5115 79.0273 45.2233 79.0273 44.8898 79.0273L44.8672 78.9991L44.8445 78.9709L44.822 78.9427L44.7993 78.9144L44.7767 78.8862L44.7541 78.858L44.7315 78.8298L44.7089 78.8015L44.4715 78.4233L44.2454 78.0394L44.025 77.6499L43.8102 77.2604L43.6011 76.8652L43.3919 76.4701C43.2506 76.2104 43.115 75.945 42.968 75.6854L40.498 71.1353L39.8706 69.9781C27.7184 47.6287 15.5718 25.2736 3.41397 2.92422C3.1031 2.35405 2.80919 1.7839 3.38006 1.17421L3.38572 1.16291Z" fill="url(#paint8_linear_9_1968)"/>
<defs>
<linearGradient id="paint0_linear_9_1968" x1="83.2907" y1="39.4713" x2="61.3998" y2="39.4713" gradientUnits="userSpaceOnUse">
<stop stop-color="#0E0E11"/>
<stop offset="0.32" stop-color="#82B3B7"/>
<stop offset="0.4" stop-color="#BAC2A5"/>
<stop offset="0.48" stop-color="#E7CF98"/>
<stop offset="0.51" stop-color="#E7B885"/>
<stop offset="0.59" stop-color="#E98055"/>
<stop offset="0.66" stop-color="#EC4A27"/>
<stop offset="0.7" stop-color="#C8463C"/>
<stop offset="0.75" stop-color="#95405C"/>
<stop offset="0.81" stop-color="#6A3B76"/>
<stop offset="0.86" stop-color="#49378A"/>
<stop offset="0.91" stop-color="#323599"/>
<stop offset="0.96" stop-color="#2333A1"/>
<stop offset="1" stop-color="#1F33A5"/>
</linearGradient>
<linearGradient id="paint1_linear_9_1968" x1="83.2907" y1="39.4713" x2="61.3998" y2="39.4713" gradientUnits="userSpaceOnUse">
<stop stop-color="#0E0E11"/>
<stop offset="0.32" stop-color="#82B3B7"/>
<stop offset="0.4" stop-color="#BAC2A5"/>
<stop offset="0.48" stop-color="#E7CF98"/>
<stop offset="0.51" stop-color="#E7B885"/>
<stop offset="0.59" stop-color="#E98055"/>
<stop offset="0.66" stop-color="#EC4A27"/>
<stop offset="0.7" stop-color="#C8463C"/>
<stop offset="0.75" stop-color="#95405C"/>
<stop offset="0.81" stop-color="#6A3B76"/>
<stop offset="0.86" stop-color="#49378A"/>
<stop offset="0.91" stop-color="#323599"/>
<stop offset="0.96" stop-color="#2333A1"/>
<stop offset="1" stop-color="#1F33A5"/>
</linearGradient>
<linearGradient id="paint2_linear_9_1968" x1="80.2838" y1="71.9539" x2="70.1438" y2="71.9539" gradientUnits="userSpaceOnUse">
<stop stop-color="#0E0E11"/>
<stop offset="0.32" stop-color="#82B3B7"/>
<stop offset="0.4" stop-color="#BAC2A5"/>
<stop offset="0.48" stop-color="#E7CF98"/>
<stop offset="0.51" stop-color="#E7B885"/>
<stop offset="0.59" stop-color="#E98055"/>
<stop offset="0.66" stop-color="#EC4A27"/>
<stop offset="0.7" stop-color="#C8463C"/>
<stop offset="0.75" stop-color="#95405C"/>
<stop offset="0.81" stop-color="#6A3B76"/>
<stop offset="0.86" stop-color="#49378A"/>
<stop offset="0.91" stop-color="#323599"/>
<stop offset="0.96" stop-color="#2333A1"/>
<stop offset="1" stop-color="#1F33A5"/>
</linearGradient>
<linearGradient id="paint3_linear_9_1968" x1="80.2837" y1="71.9538" x2="70.1437" y2="71.9538" gradientUnits="userSpaceOnUse">
<stop stop-color="#0E0E11"/>
<stop offset="0.32" stop-color="#82B3B7"/>
<stop offset="0.4" stop-color="#BAC2A5"/>
<stop offset="0.48" stop-color="#E7CF98"/>
<stop offset="0.51" stop-color="#E7B885"/>
<stop offset="0.59" stop-color="#E98055"/>
<stop offset="0.66" stop-color="#EC4A27"/>
<stop offset="0.7" stop-color="#C8463C"/>
<stop offset="0.75" stop-color="#95405C"/>
<stop offset="0.81" stop-color="#6A3B76"/>
<stop offset="0.86" stop-color="#49378A"/>
<stop offset="0.91" stop-color="#323599"/>
<stop offset="0.96" stop-color="#2333A1"/>
<stop offset="1" stop-color="#1F33A5"/>
</linearGradient>
<linearGradient id="paint4_linear_9_1968" x1="73.2016" y1="66.8675" x2="51.3333" y2="66.8675" gradientUnits="userSpaceOnUse">
<stop stop-color="#0E0E11"/>
<stop offset="0.32" stop-color="#82B3B7"/>
<stop offset="0.4" stop-color="#BAC2A5"/>
<stop offset="0.48" stop-color="#E7CF98"/>
<stop offset="0.51" stop-color="#E7B885"/>
<stop offset="0.59" stop-color="#E98055"/>
<stop offset="0.66" stop-color="#EC4A27"/>
<stop offset="0.7" stop-color="#C8463C"/>
<stop offset="0.75" stop-color="#95405C"/>
<stop offset="0.81" stop-color="#6A3B76"/>
<stop offset="0.86" stop-color="#49378A"/>
<stop offset="0.91" stop-color="#323599"/>
<stop offset="0.96" stop-color="#2333A1"/>
<stop offset="1" stop-color="#1F33A5"/>
</linearGradient>
<linearGradient id="paint5_linear_9_1968" x1="73.1112" y1="66.8337" x2="51.3333" y2="66.8337" gradientUnits="userSpaceOnUse">
<stop stop-color="#0E0E11"/>
<stop offset="0.32" stop-color="#82B3B7"/>
<stop offset="0.4" stop-color="#BAC2A5"/>
<stop offset="0.48" stop-color="#E7CF98"/>
<stop offset="0.51" stop-color="#E7B885"/>
<stop offset="0.59" stop-color="#E98055"/>
<stop offset="0.66" stop-color="#EC4A27"/>
<stop offset="0.7" stop-color="#C8463C"/>
<stop offset="0.75" stop-color="#95405C"/>
<stop offset="0.81" stop-color="#6A3B76"/>
<stop offset="0.86" stop-color="#49378A"/>
<stop offset="0.91" stop-color="#323599"/>
<stop offset="0.96" stop-color="#2333A1"/>
<stop offset="1" stop-color="#1F33A5"/>
</linearGradient>
<linearGradient id="paint6_linear_9_1968" x1="73.2018" y1="75.1265" x2="70.0535" y2="75.1265" gradientUnits="userSpaceOnUse">
<stop stop-color="#0E0E11"/>
<stop offset="0.32" stop-color="#82B3B7"/>
<stop offset="0.4" stop-color="#BAC2A5"/>
<stop offset="0.48" stop-color="#E7CF98"/>
<stop offset="0.51" stop-color="#E7B885"/>
<stop offset="0.59" stop-color="#E98055"/>
<stop offset="0.66" stop-color="#EC4A27"/>
<stop offset="0.7" stop-color="#C8463C"/>
<stop offset="0.75" stop-color="#95405C"/>
<stop offset="0.81" stop-color="#6A3B76"/>
<stop offset="0.86" stop-color="#49378A"/>
<stop offset="0.91" stop-color="#323599"/>
<stop offset="0.96" stop-color="#2333A1"/>
<stop offset="1" stop-color="#1F33A5"/>
</linearGradient>
<linearGradient id="paint7_linear_9_1968" x1="47.6537" y1="41.8931" x2="0" y2="41.8931" gradientUnits="userSpaceOnUse">
<stop stop-color="#0E0E11"/>
<stop offset="0.32" stop-color="#82B3B7"/>
<stop offset="0.4" stop-color="#BAC2A5"/>
<stop offset="0.48" stop-color="#E7CF98"/>
<stop offset="0.51" stop-color="#E7B885"/>
<stop offset="0.59" stop-color="#E98055"/>
<stop offset="0.66" stop-color="#EC4A27"/>
<stop offset="0.7" stop-color="#C8463C"/>
<stop offset="0.75" stop-color="#95405C"/>
<stop offset="0.81" stop-color="#6A3B76"/>
<stop offset="0.86" stop-color="#49378A"/>
<stop offset="0.91" stop-color="#323599"/>
<stop offset="0.96" stop-color="#2333A1"/>
<stop offset="1" stop-color="#1F33A5"/>
</linearGradient>
<linearGradient id="paint8_linear_9_1968" x1="35.948" y1="-49.4013" x2="51.2112" y2="86.2292" gradientUnits="userSpaceOnUse">
<stop stop-color="#0E0E11"/>
<stop offset="0.39" stop-color="#9BD6DA"/>
<stop offset="0.45" stop-color="#D2E0C3"/>
<stop offset="0.49" stop-color="#FFE8B1"/>
<stop offset="0.52" stop-color="#FAD19C"/>
<stop offset="0.58" stop-color="#F09868"/>
<stop offset="0.66" stop-color="#DF3D15"/>
<stop offset="0.68" stop-color="#DB2700"/>
<stop offset="0.72" stop-color="#B02E36"/>
<stop offset="0.77" stop-color="#883569"/>
<stop offset="0.82" stop-color="#663A94"/>
<stop offset="0.87" stop-color="#4C3FB5"/>
<stop offset="0.92" stop-color="#3A42CC"/>
<stop offset="0.96" stop-color="#2E44DB"/>
<stop offset="1" stop-color="#2B45E0"/>
</linearGradient>
</defs>
</svg>
