<svg width="924" height="922" viewBox="0 0 924 922" fill="none" xmlns="http://www.w3.org/2000/svg">
<path style="mix-blend-mode:screen" d="M105.116 329.547C104.736 330.545 104.426 331.576 104.161 332.63C104.088 332.912 104.044 333.208 103.981 333.492C103.783 334.402 103.629 335.335 103.521 336.28C103.478 336.639 103.439 337.004 103.411 337.37C103.329 338.449 103.292 339.551 103.32 340.679C103.323 340.89 103.306 341.089 103.319 341.302C103.37 342.459 103.508 343.637 103.671 344.823C103.723 345.161 103.779 345.506 103.836 345.84C103.995 346.763 104.183 347.701 104.414 348.646C104.491 348.958 104.553 349.262 104.635 349.579C104.947 350.78 105.315 351.995 105.739 353.225C105.812 353.433 105.9 353.648 105.977 353.862C106.348 354.898 106.765 355.946 107.214 356.999C107.375 357.387 107.547 357.776 107.729 358.167C108.154 359.103 108.6 360.042 109.081 360.993C109.251 361.33 109.41 361.666 109.586 361.999C110.247 363.263 110.953 364.539 111.712 365.824C111.846 366.053 112.001 366.285 112.139 366.519C112.784 367.589 113.465 368.661 114.176 369.747C114.447 370.158 114.727 370.57 115.012 370.988C115.669 371.953 116.355 372.932 117.068 373.911C117.349 374.287 117.607 374.67 117.893 375.052C118.895 376.393 119.927 377.749 121.016 379.11C121.144 379.28 121.298 379.45 121.436 379.623C122.407 380.824 123.425 382.039 124.473 383.259C124.833 383.679 125.199 384.095 125.569 384.518C126.536 385.616 127.524 386.717 128.547 387.83C128.884 388.195 129.211 388.558 129.547 388.923C130.883 390.355 132.271 391.796 133.7 393.244C133.954 393.497 134.217 393.752 134.471 394.005C135.778 395.315 137.132 396.636 138.513 397.958C138.938 398.368 139.375 398.781 139.811 399.193C141.454 400.743 143.129 402.299 144.877 403.866C144.937 403.923 145.004 403.975 145.06 404.026C146.911 405.682 148.835 407.351 150.795 409.031C151.247 409.415 151.688 409.798 152.146 410.177C154.148 411.864 156.195 413.564 158.302 415.268C158.596 415.503 158.89 415.737 159.184 415.971C161.609 417.919 164.093 419.871 166.65 421.836C166.817 421.961 166.978 422.091 167.145 422.217C169.746 424.204 172.431 426.205 175.17 428.205C175.692 428.585 176.208 428.969 176.734 429.355C177.774 430.11 178.83 430.862 179.891 431.62C180.678 432.184 181.454 432.745 182.247 433.304C183.371 434.099 184.517 434.896 185.657 435.688C186.418 436.216 187.168 436.742 187.939 437.272C189.182 438.127 190.446 438.986 191.712 439.835C192.412 440.306 193.096 440.78 193.806 441.254C195.526 442.405 197.267 443.559 199.029 444.716C199.295 444.889 199.552 445.061 199.812 445.238C202.331 446.882 204.901 448.534 207.499 450.186C208.198 450.631 208.908 451.079 209.613 451.52C211.863 452.939 214.14 454.357 216.448 455.781C216.871 456.041 217.285 456.301 217.713 456.567C220.393 458.207 223.111 459.848 225.866 461.489C226.57 461.905 227.278 462.326 227.987 462.748C230.284 464.108 232.608 465.467 234.953 466.829C235.521 467.16 236.088 467.491 236.667 467.824C240.767 470.189 244.959 472.553 249.21 474.911C249.614 475.133 250.011 475.359 250.419 475.586C254.706 477.956 259.064 480.321 263.488 482.678C263.887 482.893 264.281 483.103 264.68 483.319C269.14 485.686 273.674 488.055 278.27 490.409C278.656 490.607 279.046 490.811 279.432 491.009C284.063 493.374 288.765 495.735 293.527 498.09C293.904 498.277 294.271 498.461 294.648 498.647C299.46 501.021 304.34 503.376 309.28 505.725C309.619 505.884 309.947 506.042 310.285 506.201C315.261 508.561 320.309 510.907 325.406 513.246C325.725 513.392 326.045 513.538 326.368 513.689C331.497 516.033 336.698 518.364 341.943 520.681C342.243 520.813 342.544 520.945 342.844 521.078C348.142 523.403 353.495 525.718 358.906 528.011C359.161 528.12 359.417 528.23 359.672 528.339C365.484 530.802 371.353 533.243 377.286 535.659C377.311 535.668 377.326 535.675 377.351 535.685C383.258 538.091 389.229 540.472 395.241 542.823C395.644 542.983 396.053 543.138 396.452 543.292C400.389 544.825 404.355 546.348 408.332 547.863C409.135 548.166 409.928 548.467 410.725 548.775C414.907 550.354 419.113 551.917 423.337 553.467C423.944 553.691 424.561 553.917 425.174 554.137C433.468 557.166 441.84 560.14 450.293 563.051C450.908 563.261 451.522 563.471 452.133 563.675C457.093 565.378 462.068 567.063 467.074 568.717C470.04 569.698 472.993 570.662 475.937 571.613C476.263 571.719 476.585 571.819 476.911 571.924C480.278 573.013 483.633 574.074 486.973 575.127C487.942 575.432 488.907 575.731 489.872 576.03C493.102 577.034 496.324 578.027 499.526 579.006C499.951 579.133 500.369 579.264 500.794 579.391C504.309 580.458 507.802 581.495 511.287 582.521C512.202 582.791 513.12 583.052 514.036 583.322C516.81 584.132 519.575 584.93 522.328 585.711C523.163 585.948 524.003 586.19 524.839 586.426C528.258 587.39 531.669 588.341 535.058 589.264C535.669 589.432 536.275 589.594 536.892 589.758C539.716 590.525 542.527 591.274 545.33 592.012C546.286 592.263 547.243 592.514 548.189 592.764C551.337 593.584 554.476 594.393 557.592 595.183C557.819 595.241 558.056 595.301 558.286 595.365C561.624 596.206 564.934 597.023 568.231 597.822C569.103 598.033 569.98 598.24 570.852 598.452C573.625 599.112 576.382 599.765 579.12 600.404C579.786 600.561 580.453 600.718 581.114 600.869C584.386 601.622 587.641 602.352 590.871 603.063C591.596 603.224 592.312 603.373 593.032 603.529C595.875 604.149 598.705 604.752 601.516 605.342C602.21 605.488 602.916 605.636 603.611 605.782C606.879 606.457 610.114 607.112 613.327 607.737C613.981 607.866 614.632 607.989 615.292 608.114C618.396 608.716 621.472 609.293 624.524 609.85C625.019 609.937 625.523 610.037 626.013 610.128C629.336 610.73 632.632 611.307 635.9 611.859C636.6 611.975 637.293 612.095 637.989 612.205C641.576 612.805 645.131 613.373 648.636 613.913C649.066 613.974 649.49 614.039 649.914 614.104C653.421 614.634 656.89 615.136 660.322 615.602C660.558 615.636 660.794 615.67 661.03 615.704C665.317 616.286 669.538 616.815 673.691 617.302C673.871 617.322 674.054 617.347 674.223 617.365C678.392 617.849 682.485 618.28 686.515 618.665C686.68 618.677 686.848 618.694 687.011 618.716C689.394 618.941 691.742 619.144 694.072 619.335C694.728 619.392 695.375 619.437 696.026 619.489C697.706 619.617 699.381 619.74 701.035 619.86C701.826 619.914 702.612 619.962 703.392 620.014C704.948 620.112 706.495 620.198 708.026 620.287C708.754 620.33 709.488 620.369 710.207 620.401C712.08 620.495 713.929 620.569 715.764 620.636C716.105 620.652 716.456 620.669 716.793 620.678C717.385 620.699 717.962 620.712 718.55 620.727C719.767 620.764 720.995 620.802 722.193 620.826C722.909 620.841 723.617 620.845 724.329 620.855C725.383 620.87 726.442 620.891 727.488 620.894C728.243 620.901 728.98 620.894 729.725 620.899C730.706 620.902 731.693 620.9 732.666 620.892C733.419 620.882 734.155 620.876 734.897 620.865C735.838 620.851 736.78 620.836 737.717 620.817C738.465 620.801 739.198 620.779 739.932 620.756C740.837 620.731 741.739 620.7 742.629 620.667C743.369 620.64 744.093 620.606 744.824 620.567C745.7 620.527 746.565 620.484 747.426 620.436C748.147 620.396 748.857 620.354 749.566 620.312C750.413 620.256 751.259 620.201 752.101 620.139C752.796 620.09 753.492 620.03 754.183 619.974C755.01 619.905 755.826 619.834 756.638 619.758C757.314 619.694 757.99 619.631 758.661 619.562C759.469 619.479 760.262 619.389 761.049 619.303C761.699 619.231 762.35 619.158 762.991 619.074C763.78 618.978 764.554 618.874 765.333 618.766C765.954 618.678 766.579 618.597 767.19 618.507C767.965 618.393 768.725 618.272 769.48 618.155C770.069 618.062 770.659 617.969 771.244 617.87C772.016 617.74 772.764 617.601 773.517 617.458C774.065 617.358 774.612 617.258 775.15 617.157C775.948 617.001 776.721 616.835 777.5 616.665C777.973 616.563 778.451 616.467 778.913 616.363C779.832 616.16 780.721 615.942 781.616 615.719C781.918 615.645 782.231 615.573 782.532 615.5C783.709 615.2 784.866 614.887 785.997 614.564C786.291 614.479 786.563 614.39 786.856 614.304C787.686 614.056 788.516 613.807 789.32 613.548C789.723 613.414 790.105 613.276 790.509 613.142C791.173 612.918 791.838 612.693 792.484 612.455C792.917 612.3 793.331 612.131 793.75 611.969C794.334 611.746 794.924 611.519 795.493 611.289C795.92 611.112 796.331 610.928 796.747 610.749C797.285 610.514 797.827 610.284 798.35 610.041C798.757 609.851 799.16 609.655 799.556 609.463C800.058 609.216 800.554 608.974 801.042 608.72C801.435 608.512 801.813 608.306 802.196 608.097C802.663 607.839 803.123 607.586 803.575 607.32C803.943 607.103 804.307 606.88 804.665 606.661C805.102 606.388 805.533 606.12 805.949 605.843C806.287 605.611 806.631 605.384 806.965 605.146C807.37 604.868 807.767 604.578 808.153 604.287C808.477 604.047 808.791 603.805 809.1 603.557C809.476 603.264 809.837 602.963 810.193 602.656C810.492 602.407 810.78 602.156 811.064 601.899C811.412 601.58 811.743 601.264 812.07 600.942C812.333 600.682 812.6 600.427 812.859 600.161C813.177 599.827 813.48 599.486 813.783 599.144C814.015 598.879 814.257 598.615 814.478 598.347C814.773 597.994 815.048 597.627 815.323 597.261C815.523 596.99 815.738 596.727 815.928 596.454C816.201 596.072 816.449 595.67 816.697 595.278C816.864 595.012 817.04 594.758 817.197 594.49C817.458 594.044 817.695 593.588 817.931 593.133C818.044 592.904 818.182 592.685 818.29 592.45C818.625 591.758 818.929 591.051 819.208 590.335L809.563 615.604C809.288 616.326 808.979 617.028 808.645 617.719C808.532 617.948 808.398 618.173 808.285 618.402C808.049 618.857 807.813 619.313 807.551 619.759C807.394 620.027 807.218 620.281 807.051 620.547C806.798 620.943 806.549 621.345 806.276 621.727C806.086 622 805.871 622.263 805.671 622.534C805.396 622.901 805.122 623.257 804.826 623.621C804.599 623.892 804.363 624.152 804.125 624.422C803.822 624.763 803.519 625.104 803.201 625.438C802.948 625.7 802.681 625.955 802.418 626.215C802.091 626.537 801.754 626.858 801.406 627.176C801.122 627.433 800.83 627.678 800.541 627.929C800.185 628.236 799.818 628.541 799.442 628.835C799.139 629.078 798.815 629.318 798.502 629.56C798.115 629.851 797.708 630.14 797.307 630.423C796.974 630.652 796.636 630.884 796.291 631.121C795.875 631.397 795.438 631.67 795.007 631.939C794.649 632.158 794.285 632.381 793.917 632.598C793.465 632.863 792.999 633.121 792.532 633.378C792.155 633.584 791.772 633.793 791.384 633.997C790.896 634.251 790.394 634.498 789.888 634.739C789.491 634.931 789.099 635.128 788.688 635.313C788.159 635.56 787.61 635.794 787.062 636.027C786.652 636.202 786.247 636.382 785.837 636.556C785.256 636.795 784.655 637.02 784.059 637.251C783.647 637.409 783.245 637.569 782.828 637.722C782.176 637.964 781.501 638.187 780.83 638.416C780.437 638.552 780.061 638.686 779.664 638.816C778.847 639.082 778.011 639.335 777.165 639.587C776.888 639.67 776.627 639.76 776.346 639.837C775.214 640.16 774.061 640.479 772.881 640.773C772.567 640.855 772.233 640.923 771.909 641.004C771.036 641.22 770.159 641.43 769.257 641.631C768.794 641.735 768.323 641.827 767.856 641.924C767.073 642.088 766.294 642.258 765.489 642.418C764.962 642.522 764.427 642.613 763.889 642.715C763.126 642.856 762.362 642.998 761.577 643.136C761.009 643.232 760.425 643.321 759.846 643.416C759.075 643.535 758.303 643.665 757.517 643.777C756.923 643.864 756.314 643.943 755.706 644.023C754.916 644.129 754.125 644.235 753.32 644.334C752.691 644.41 752.051 644.484 751.411 644.558C750.607 644.647 749.804 644.735 748.99 644.822C748.335 644.888 747.666 644.948 747 645.013C746.178 645.087 745.355 645.162 744.518 645.23C743.838 645.287 743.153 645.339 742.463 645.394C741.615 645.46 740.758 645.514 739.895 645.572C739.202 645.611 738.507 645.661 737.803 645.699C736.926 645.749 736.044 645.794 735.158 645.833C734.443 645.869 733.725 645.899 733.002 645.924C732.101 645.955 731.183 645.988 730.271 646.017C729.544 646.036 728.815 646.065 728.083 646.077C727.146 646.097 726.199 646.115 725.253 646.124C724.511 646.135 723.779 646.147 723.032 646.152C722.043 646.164 721.041 646.157 720.043 646.157C719.319 646.155 718.61 646.162 717.881 646.154C716.815 646.148 715.729 646.127 714.637 646.111C713.952 646.101 713.271 646.096 712.571 646.078C711.363 646.053 710.129 646.019 708.901 645.98C708.32 645.961 707.753 645.95 707.165 645.935C707.107 645.93 707.053 645.931 706.995 645.927C706.712 645.916 706.415 645.898 706.132 645.887C704.297 645.82 702.454 645.741 700.581 645.647C699.857 645.61 699.123 645.571 698.389 645.532C696.853 645.447 695.306 645.361 693.75 645.263C692.97 645.211 692.194 645.164 691.403 645.111C689.747 645.001 688.072 644.878 686.388 644.743C685.737 644.692 685.09 644.647 684.434 644.59C682.104 644.399 679.756 644.196 677.383 643.973C677.325 643.968 677.267 643.964 677.209 643.959C677.098 643.946 676.982 643.937 676.871 643.924C672.851 643.541 668.759 643.11 664.594 642.631C664.414 642.612 664.22 642.585 664.041 642.566C659.893 642.084 655.678 641.551 651.39 640.969C651.332 640.964 651.28 640.956 651.221 640.951C651.038 640.926 650.86 640.897 650.677 640.871C647.261 640.403 643.796 639.906 640.3 639.378C639.855 639.31 639.425 639.249 638.98 639.18C635.479 638.647 631.93 638.074 628.347 637.48C627.982 637.42 627.636 637.373 627.276 637.308C626.942 637.253 626.593 637.189 626.254 637.128C622.986 636.576 619.695 636.005 616.367 635.397C615.878 635.306 615.388 635.214 614.893 635.127C611.851 634.572 608.782 633.991 605.688 633.39C605.251 633.308 604.829 633.233 604.398 633.146C604.16 633.096 603.915 633.05 603.676 633C600.474 632.377 597.25 631.724 593.992 631.05C593.281 630.907 592.56 630.751 591.845 630.602C589.059 630.022 586.25 629.422 583.428 628.805C582.946 628.699 582.469 628.6 581.988 628.494C581.734 628.437 581.481 628.379 581.227 628.322C578.007 627.613 574.759 626.879 571.491 626.131C570.815 625.973 570.138 625.814 569.455 625.66C566.732 625.028 563.989 624.383 561.244 623.722C560.722 623.6 560.211 623.479 559.685 623.35C559.318 623.264 558.943 623.165 558.576 623.079C555.29 622.282 551.995 621.473 548.678 620.635C548.399 620.568 548.122 620.491 547.844 620.424C544.768 619.652 541.67 618.85 538.564 618.036C538.111 617.92 537.673 617.811 537.22 617.695C536.71 617.564 536.198 617.418 535.684 617.281C532.903 616.547 530.102 615.799 527.298 615.036C526.667 614.864 526.04 614.699 525.404 614.521C522.031 613.596 518.64 612.658 515.23 611.696C514.943 611.618 514.666 611.541 514.378 611.462C513.799 611.299 513.221 611.126 512.642 610.963C509.91 610.186 507.175 609.403 504.432 608.598C503.505 608.326 502.573 608.058 501.642 607.78C498.162 606.76 494.669 605.723 491.16 604.652C491.074 604.622 490.986 604.602 490.899 604.573C490.567 604.471 490.231 604.364 489.899 604.263C486.69 603.288 483.469 602.295 480.234 601.285C479.275 600.982 478.315 600.689 477.352 600.38C474.001 599.325 470.641 598.258 467.264 597.167C467.02 597.086 466.774 597.014 466.524 596.937C466.453 596.914 466.387 596.888 466.316 596.866C463.367 595.908 460.408 594.949 457.442 593.968C452.436 592.314 447.451 590.627 442.49 588.924C442.044 588.768 441.59 588.626 441.148 588.475C440.986 588.417 440.823 588.359 440.661 588.302C432.208 585.391 423.836 582.417 415.542 579.388C415.279 579.293 415.009 579.202 414.757 579.108C414.407 578.983 414.059 578.849 413.716 578.719C409.491 577.169 405.285 575.607 401.104 574.027C400.3 573.724 399.508 573.423 398.711 573.115C394.727 571.605 390.761 570.082 386.824 568.549C386.512 568.425 386.194 568.305 385.875 568.185C385.785 568.15 385.7 568.11 385.614 568.08C379.601 565.728 373.631 563.348 367.724 560.941C367.698 560.932 367.683 560.925 367.658 560.915C361.726 558.5 355.857 556.058 350.045 553.596C349.969 553.568 349.895 553.53 349.819 553.502C349.633 553.425 349.453 553.343 349.268 553.266C343.867 550.975 338.508 548.664 333.216 546.334C332.916 546.202 332.616 546.07 332.311 545.932C327.066 543.615 321.869 541.29 316.741 538.946C316.422 538.8 316.102 538.655 315.783 538.509C310.68 536.174 305.638 533.824 300.662 531.463C300.324 531.304 299.991 531.141 299.652 530.982C294.712 528.633 289.839 526.274 285.024 523.91C284.647 523.724 284.281 523.539 283.904 523.353C279.146 521.003 274.444 518.642 269.808 516.271C269.418 516.068 269.032 515.87 268.647 515.672C264.051 513.318 259.517 510.948 255.063 508.577C254.664 508.361 254.27 508.152 253.875 507.942C249.447 505.58 245.089 503.214 240.806 500.85C240.398 500.623 240.001 500.397 239.598 500.176C235.346 497.817 231.16 495.449 227.054 493.088C226.907 493.002 226.754 492.92 226.608 492.834C226.176 492.587 225.772 492.34 225.34 492.093C222.995 490.731 220.671 489.372 218.374 488.012C217.665 487.591 216.951 487.173 216.253 486.754C213.498 485.112 210.78 483.471 208.1 481.832C207.676 481.571 207.259 481.306 206.835 481.045C204.527 479.621 202.25 478.203 200 476.784C199.295 476.343 198.586 475.896 197.887 475.45C195.284 473.792 192.707 472.144 190.184 470.494C190.184 470.494 190.176 470.483 190.165 470.481C190.01 470.383 189.86 470.281 189.706 470.173C187.842 468.952 185.995 467.729 184.174 466.505C183.498 466.052 182.838 465.598 182.167 465.141C180.874 464.267 179.584 463.399 178.318 462.525C177.547 461.995 176.797 461.469 176.036 460.941C174.891 460.143 173.745 459.345 172.621 458.551C171.828 457.992 171.052 457.43 170.269 456.873C169.209 456.115 168.152 455.363 167.113 454.608C166.854 454.421 166.589 454.238 166.336 454.047C166.069 453.848 165.816 453.656 165.548 453.457C162.809 451.458 160.125 449.456 157.523 447.469C157.356 447.344 157.195 447.214 157.028 447.088C154.471 445.124 151.983 443.166 149.562 441.224C149.363 441.067 149.153 440.908 148.959 440.748C148.865 440.67 148.781 440.594 148.686 440.517C146.576 438.807 144.528 437.107 142.521 435.414C142.074 435.036 141.633 434.654 141.186 434.276C139.22 432.6 137.301 430.927 135.45 429.27C135.399 429.225 135.347 429.181 135.295 429.136C135.287 429.124 135.278 429.112 135.259 429.099C133.511 427.531 131.836 425.976 130.188 424.42C129.756 424.013 129.331 423.603 128.899 423.196C127.514 421.869 126.16 420.547 124.848 419.232C124.659 419.041 124.455 418.852 124.266 418.661C124.201 418.599 124.147 418.539 124.088 418.472C122.654 417.019 121.271 415.583 119.931 414.145C119.594 413.78 119.262 413.421 118.931 413.052C117.912 411.945 116.92 410.838 115.953 409.74C115.741 409.494 115.507 409.254 115.296 409.008C115.143 408.828 115.005 408.655 114.852 408.476C113.808 407.262 112.795 406.053 111.824 404.851C111.686 404.679 111.538 404.505 111.4 404.332C110.31 402.972 109.272 401.62 108.277 400.275C108.184 400.151 108.077 400.02 107.991 399.892C107.798 399.634 107.636 399.38 107.453 399.123C106.744 398.15 106.062 397.177 105.406 396.213C105.121 395.794 104.84 395.382 104.566 394.965C103.853 393.889 103.177 392.813 102.538 391.749C102.424 391.56 102.289 391.368 102.18 391.185C102.149 391.143 102.131 391.094 102.106 391.049C101.347 389.763 100.64 388.487 99.9799 387.223C99.7998 386.884 99.645 386.555 99.4753 386.217C98.9938 385.267 98.5437 384.321 98.1232 383.391C98.0293 383.179 97.9146 382.965 97.8207 382.753C97.7427 382.576 97.6901 382.407 97.6122 382.229C97.1637 381.176 96.751 380.134 96.3801 379.098C96.3027 378.884 96.2149 378.669 96.1375 378.455C95.7129 377.225 95.3492 376.016 95.0378 374.815C95.0109 374.718 94.9692 374.613 94.944 374.506C94.8875 374.296 94.8624 374.09 94.8119 373.876C94.5861 372.937 94.3915 372.003 94.2388 371.076C94.183 370.732 94.1211 370.391 94.0696 370.053C93.9 368.871 93.7678 367.689 93.7175 366.532C93.7143 366.454 93.7094 366.386 93.7062 366.309C93.7024 366.169 93.7223 366.048 93.7185 365.909C93.6902 364.781 93.7213 363.683 93.8089 362.6C93.8372 362.234 93.8759 361.869 93.9191 361.51C94.027 360.565 94.181 359.632 94.3795 358.722C94.4231 358.523 94.4371 358.309 94.4807 358.11C94.5 358.025 94.5401 357.944 94.5594 357.86C94.8246 356.806 95.1284 355.78 95.5139 354.777L105.16 329.508L105.116 329.547Z" fill="url(#paint0_linear_2003_162)"/>
<g style="mix-blend-mode:screen">
<path d="M103.41 341.129C108.259 393.261 205.158 450.71 249.372 475.854C384.644 550.032 584.086 621.956 739.613 621.473C768.525 620.116 821.877 615.458 821.13 578.646C821.491 615.234 768.099 619.153 739.55 620.102C587.323 620.288 383.593 546.348 250.319 474.244C206.387 449.441 108.559 392.193 103.406 341.123L103.41 341.129Z" fill="url(#paint1_linear_2003_162)"/>
</g>
<path d="M425.732 554.257C623.26 625.643 799.553 641.58 819.492 589.853C839.431 538.127 695.466 438.324 497.937 366.938C300.408 295.552 124.116 279.615 104.177 331.342C84.2377 383.068 228.203 482.871 425.732 554.257Z" fill="url(#paint2_linear_2003_162)"/>
<path d="M425.732 554.257C623.26 625.643 799.553 641.58 819.492 589.853C839.431 538.127 695.466 438.324 497.937 366.938C300.408 295.552 124.116 279.615 104.177 331.342C84.2377 383.068 228.203 482.871 425.732 554.257Z" fill="url(#paint3_linear_2003_162)"/>
<defs>
<linearGradient id="paint0_linear_2003_162" x1="765.704" y1="685.943" x2="133.049" y2="285.474" gradientUnits="userSpaceOnUse">
<stop stop-color="#DDE5EC"/>
<stop offset="0.57" stop-color="#595959"/>
<stop offset="0.65" stop-color="#545454"/>
<stop offset="0.75" stop-color="#454545"/>
<stop offset="0.86" stop-color="#2D2D2D"/>
<stop offset="0.96" stop-color="#0C0C0C"/>
<stop offset="1"/>
</linearGradient>
<linearGradient id="paint1_linear_2003_162" x1="771.131" y1="667.653" x2="146.787" y2="272.62" gradientUnits="userSpaceOnUse">
<stop stop-color="#595959"/>
<stop offset="0.08" stop-color="#5D5D5D"/>
<stop offset="0.16" stop-color="#6A6B6C"/>
<stop offset="0.26" stop-color="#7F8284"/>
<stop offset="0.36" stop-color="#9EA2A5"/>
<stop offset="0.47" stop-color="#C4CAD0"/>
<stop offset="0.53" stop-color="#DDE5EC"/>
<stop offset="1" stop-color="#E7ECF6"/>
</linearGradient>
<linearGradient id="paint2_linear_2003_162" x1="1066.81" y1="369.032" x2="16.7193" y2="559.55" gradientUnits="userSpaceOnUse">
<stop offset="0.19" stop-color="white" stop-opacity="0"/>
<stop offset="0.32" stop-color="white" stop-opacity="0.01"/>
<stop offset="0.42" stop-color="white" stop-opacity="0.05"/>
<stop offset="0.52" stop-color="white" stop-opacity="0.12"/>
<stop offset="0.61" stop-color="white" stop-opacity="0.22"/>
<stop offset="0.7" stop-color="white" stop-opacity="0.34"/>
<stop offset="0.79" stop-color="white" stop-opacity="0.49"/>
<stop offset="0.87" stop-color="white" stop-opacity="0.67"/>
<stop offset="0.96" stop-color="white" stop-opacity="0.88"/>
<stop offset="1" stop-color="white"/>
</linearGradient>
<linearGradient id="paint3_linear_2003_162" x1="102.692" y1="313.384" x2="986.664" y2="702.008" gradientUnits="userSpaceOnUse">
<stop stop-color="#7AA3A6" stop-opacity="0.5"/>
<stop offset="0.06" stop-color="#87ACAF" stop-opacity="0.45"/>
<stop offset="0.15" stop-color="#ADC6C8" stop-opacity="0.31"/>
<stop offset="0.26" stop-color="#EAF0F1" stop-opacity="0.08"/>
<stop offset="0.3" stop-color="white" stop-opacity="0"/>
<stop offset="0.37" stop-color="white" stop-opacity="0.02"/>
<stop offset="0.45" stop-color="white" stop-opacity="0.08"/>
<stop offset="0.55" stop-color="white" stop-opacity="0.18"/>
<stop offset="0.65" stop-color="white" stop-opacity="0.31"/>
<stop offset="0.76" stop-color="white" stop-opacity="0.49"/>
<stop offset="0.87" stop-color="white" stop-opacity="0.7"/>
<stop offset="0.98" stop-color="white" stop-opacity="0.95"/>
<stop offset="1" stop-color="white"/>
</linearGradient>
</defs>
</svg>
