<svg width="767" height="940" viewBox="0 0 767 940" fill="none" xmlns="http://www.w3.org/2000/svg">
<path style="mix-blend-mode:screen" opacity="0.51" d="M512.76 64.8764C512.76 63.2884 511.47 62 509.88 62C508.29 62 507 63.2884 507 64.8764C507 66.4645 508.29 67.7529 509.88 67.7529C511.47 67.7529 512.76 66.4645 512.76 64.8764Z" fill="url(#paint0_radial_2003_64)"/>
<g clip-path="url(#clip0_2003_64)">
<path style="mix-blend-mode:screen" opacity="0.51" d="M119.627 547.846C131.443 545.023 138.731 533.169 135.905 521.368C133.079 509.567 121.21 502.288 109.394 505.11C97.5786 507.933 90.2907 519.787 93.1165 531.588C95.9423 543.389 107.812 550.668 119.627 547.846Z" fill="url(#paint1_radial_2003_64)"/>
<path style="mix-blend-mode:screen" opacity="0.51" d="M560.89 107.746C568.561 107.746 574.78 101.535 574.78 93.8729C574.78 86.2111 568.561 80 560.89 80C553.219 80 547 86.2111 547 93.8729C547 101.535 553.219 107.746 560.89 107.746Z" fill="url(#paint2_radial_2003_64)"/>
<path style="mix-blend-mode:screen" d="M74.4222 851.567C75.0447 852.488 75.7348 853.372 76.4698 854.234C76.6648 854.466 76.8898 854.683 77.0923 854.908C77.7448 855.627 78.4423 856.324 79.1773 856.99C79.4548 857.245 79.7398 857.5 80.0323 857.747C80.8948 858.473 81.8022 859.178 82.7697 859.844C82.9497 859.972 83.1073 860.106 83.2948 860.226C84.2998 860.893 85.3723 861.5 86.4673 862.091C86.7823 862.256 87.1048 862.421 87.4198 862.578C88.2898 863.013 89.1898 863.432 90.1198 863.822C90.4273 863.949 90.7197 864.084 91.0347 864.211C92.2272 864.691 93.4648 865.133 94.7473 865.537C94.9648 865.605 95.1972 865.665 95.4222 865.732C96.5097 866.062 97.6348 866.361 98.7823 866.638C99.2023 866.743 99.6298 866.841 100.065 866.93C101.1 867.155 102.15 867.365 103.23 867.552C103.612 867.62 103.987 867.694 104.37 867.754C105.817 867.987 107.302 868.189 108.825 868.354C109.095 868.384 109.38 868.399 109.657 868.429C110.932 868.556 112.23 868.653 113.557 868.736C114.06 868.766 114.57 868.788 115.087 868.811C116.28 868.863 117.502 868.901 118.74 868.915C119.22 868.915 119.692 868.938 120.18 868.938C121.89 868.938 123.63 868.923 125.407 868.863C125.625 868.863 125.857 868.841 126.082 868.833C127.657 868.773 129.27 868.683 130.905 868.571C131.467 868.533 132.03 868.489 132.6 868.444C134.085 868.324 135.585 868.189 137.115 868.032C137.617 867.979 138.112 867.934 138.615 867.882C140.595 867.665 142.612 867.41 144.66 867.125C145.02 867.073 145.387 867.013 145.747 866.96C147.607 866.691 149.505 866.391 151.417 866.069C152.01 865.972 152.61 865.867 153.21 865.762C155.467 865.365 157.747 864.945 160.08 864.473C160.162 864.458 160.245 864.436 160.32 864.421C162.787 863.919 165.307 863.365 167.857 862.788C168.442 862.653 169.02 862.526 169.605 862.383C172.185 861.777 174.802 861.14 177.457 860.458C177.825 860.361 178.192 860.264 178.56 860.166C181.605 859.372 184.687 858.533 187.822 857.642C188.025 857.582 188.227 857.53 188.43 857.47C191.61 856.556 194.85 855.582 198.12 854.563C198.742 854.368 199.365 854.181 199.995 853.986C201.232 853.597 202.477 853.192 203.73 852.788C204.66 852.488 205.582 852.196 206.512 851.889C207.832 851.455 209.167 851.005 210.495 850.556C211.38 850.256 212.257 849.964 213.15 849.657C214.59 849.162 216.045 848.653 217.492 848.136C218.295 847.852 219.09 847.582 219.9 847.29C221.865 846.586 223.845 845.866 225.84 845.132C226.14 845.02 226.432 844.915 226.732 844.81C229.575 843.754 232.455 842.66 235.35 841.544C236.13 841.245 236.917 840.938 237.697 840.63C240.195 839.657 242.707 838.66 245.242 837.642C245.707 837.454 246.165 837.275 246.637 837.087C249.57 835.896 252.525 834.675 255.502 833.424C256.26 833.102 257.025 832.78 257.79 832.458C260.265 831.409 262.755 830.338 265.26 829.252C265.867 828.99 266.475 828.728 267.09 828.458C271.455 826.548 275.872 824.563 280.32 822.525C280.74 822.331 281.16 822.143 281.587 821.948C286.065 819.889 290.58 817.769 295.125 815.589C295.537 815.394 295.942 815.199 296.355 815.005C300.93 812.802 305.55 810.54 310.192 808.218C310.582 808.023 310.98 807.828 311.37 807.634C316.042 805.289 320.752 802.885 325.492 800.428C325.867 800.233 326.235 800.046 326.61 799.851C331.395 797.364 336.202 794.81 341.04 792.203C341.37 792.023 341.692 791.851 342.022 791.671C346.89 789.042 351.787 786.345 356.707 783.603C357.015 783.431 357.322 783.259 357.637 783.087C362.58 780.322 367.552 777.491 372.54 774.615C372.825 774.45 373.11 774.285 373.395 774.12C378.42 771.206 383.467 768.24 388.53 765.214C388.77 765.071 389.01 764.929 389.25 764.787C394.687 761.536 400.14 758.225 405.607 754.846C405.63 754.831 405.645 754.824 405.667 754.809C411.112 751.446 416.572 748.015 422.032 744.532C422.4 744.299 422.767 744.06 423.127 743.828C426.697 741.543 430.275 739.228 433.852 736.899C434.572 736.427 435.285 735.962 436.005 735.498C439.755 733.041 443.505 730.554 447.255 728.045C447.795 727.685 448.342 727.318 448.882 726.951C456.232 722.015 463.582 716.981 470.925 711.842C471.457 711.468 471.99 711.093 472.515 710.718C476.82 707.7 481.117 704.659 485.407 701.572C487.95 699.745 490.47 697.917 492.975 696.089C493.252 695.887 493.522 695.685 493.8 695.482C496.665 693.392 499.5 691.295 502.32 689.205C503.137 688.598 503.947 687.992 504.757 687.385C507.472 685.355 510.172 683.325 512.85 681.302C513.202 681.033 513.555 680.771 513.907 680.501C516.84 678.276 519.735 676.051 522.615 673.827C523.372 673.242 524.122 672.651 524.88 672.066C527.167 670.291 529.44 668.516 531.69 666.74C532.372 666.201 533.062 665.662 533.745 665.122C536.535 662.913 539.31 660.703 542.047 658.493C542.542 658.096 543.03 657.699 543.525 657.295C545.805 655.452 548.062 653.609 550.305 651.766C551.07 651.137 551.835 650.508 552.592 649.886C555.105 647.811 557.602 645.736 560.07 643.669C560.25 643.519 560.437 643.362 560.625 643.212C563.265 640.995 565.867 638.785 568.447 636.575C569.13 635.991 569.812 635.399 570.495 634.815C572.655 632.95 574.8 631.092 576.922 629.242C577.44 628.792 577.957 628.343 578.467 627.893C580.995 625.676 583.492 623.459 585.96 621.249C586.515 620.755 587.055 620.26 587.602 619.766C589.77 617.818 591.915 615.871 594.037 613.931C594.562 613.451 595.095 612.964 595.62 612.485C598.08 610.223 600.502 607.976 602.887 605.728C603.375 605.271 603.855 604.814 604.342 604.35C606.645 602.178 608.91 600.013 611.145 597.856C611.505 597.503 611.88 597.151 612.24 596.807C614.67 594.455 617.062 592.11 619.417 589.773C619.92 589.271 620.422 588.777 620.917 588.275C623.497 585.706 626.032 583.144 628.515 580.604C628.815 580.29 629.115 579.983 629.415 579.676C631.89 577.129 634.32 574.597 636.697 572.072C636.862 571.9 637.027 571.728 637.192 571.556C640.162 568.402 643.05 565.271 645.862 562.17C645.982 562.035 646.11 561.9 646.222 561.773C649.042 558.656 651.772 555.57 654.427 552.507C654.532 552.379 654.645 552.252 654.757 552.132C656.325 550.319 657.855 548.521 659.362 546.731C659.79 546.229 660.202 545.727 660.622 545.226C661.702 543.93 662.775 542.634 663.832 541.353C664.335 540.739 664.83 540.124 665.325 539.518C666.307 538.304 667.275 537.091 668.235 535.892C668.692 535.323 669.15 534.746 669.592 534.177C670.755 532.701 671.887 531.233 673.005 529.772C673.215 529.502 673.432 529.225 673.635 528.956C673.995 528.484 674.34 528.019 674.692 527.547C675.427 526.574 676.17 525.592 676.882 524.626C677.31 524.049 677.722 523.472 678.142 522.896C678.765 522.042 679.395 521.188 680.002 520.334C680.445 519.72 680.865 519.113 681.3 518.506C681.87 517.705 682.44 516.896 682.995 516.094C683.422 515.472 683.842 514.866 684.262 514.251C684.795 513.472 685.327 512.693 685.852 511.914C686.272 511.293 686.677 510.678 687.082 510.064C687.585 509.307 688.08 508.551 688.567 507.802C688.972 507.18 689.362 506.566 689.752 505.944C690.225 505.203 690.69 504.468 691.147 503.734C691.53 503.12 691.905 502.513 692.28 501.907C692.722 501.18 693.165 500.453 693.6 499.727C693.96 499.128 694.312 498.521 694.665 497.922C695.085 497.202 695.497 496.491 695.902 495.779C696.24 495.187 696.577 494.596 696.907 494.004C697.305 493.292 697.687 492.588 698.07 491.892C698.385 491.315 698.7 490.738 699 490.161C699.375 489.457 699.735 488.76 700.095 488.056C700.38 487.494 700.672 486.933 700.95 486.378C701.302 485.674 701.64 484.978 701.977 484.288C702.24 483.749 702.502 483.21 702.757 482.67C703.095 481.959 703.41 481.262 703.725 480.558C703.957 480.049 704.19 479.539 704.415 479.037C704.745 478.288 705.052 477.554 705.36 476.813C705.547 476.363 705.742 475.914 705.922 475.472C706.282 474.595 706.612 473.734 706.942 472.865C707.055 472.573 707.175 472.273 707.287 471.981C707.715 470.835 708.12 469.696 708.502 468.573C708.6 468.281 708.682 468.004 708.78 467.711C709.05 466.88 709.32 466.048 709.567 465.232C709.687 464.82 709.792 464.423 709.912 464.011C710.107 463.329 710.302 462.648 710.475 461.974C710.595 461.524 710.692 461.082 710.797 460.64C710.947 460.026 711.097 459.404 711.232 458.797C711.33 458.34 711.412 457.891 711.502 457.442C711.615 456.857 711.735 456.273 711.832 455.696C711.907 455.247 711.975 454.797 712.042 454.355C712.125 453.794 712.207 453.239 712.275 452.685C712.327 452.236 712.372 451.801 712.417 451.359C712.47 450.82 712.522 450.288 712.56 449.756C712.59 449.322 712.612 448.887 712.635 448.46C712.657 447.936 712.68 447.419 712.687 446.91C712.687 446.49 712.695 446.071 712.687 445.651C712.687 445.149 712.672 444.647 712.65 444.153C712.635 443.741 712.612 443.337 712.582 442.932C712.552 442.445 712.507 441.966 712.455 441.486C712.417 441.089 712.372 440.7 712.32 440.31C712.252 439.831 712.177 439.366 712.095 438.902C712.027 438.527 711.967 438.153 711.892 437.778C711.795 437.314 711.682 436.857 711.57 436.4C711.48 436.048 711.397 435.688 711.3 435.344C711.172 434.887 711.022 434.438 710.872 433.988C710.76 433.658 710.662 433.321 710.542 432.999C710.377 432.542 710.182 432.093 709.995 431.651C709.867 431.351 709.755 431.052 709.62 430.76C709.395 430.273 709.147 429.801 708.9 429.329C708.772 429.097 708.667 428.849 708.532 428.617C708.142 427.921 707.722 427.239 707.28 426.572L723.007 449.921C723.457 450.588 723.87 451.269 724.26 451.966C724.387 452.198 724.5 452.445 724.627 452.677C724.875 453.149 725.122 453.621 725.347 454.108C725.482 454.4 725.595 454.7 725.722 455C725.91 455.449 726.105 455.899 726.27 456.355C726.39 456.678 726.487 457.015 726.6 457.344C726.75 457.794 726.892 458.236 727.027 458.7C727.125 459.052 727.207 459.404 727.297 459.764C727.41 460.221 727.522 460.678 727.62 461.142C727.695 461.509 727.755 461.884 727.822 462.258C727.905 462.723 727.98 463.194 728.047 463.674C728.1 464.063 728.137 464.453 728.182 464.842C728.235 465.322 728.28 465.809 728.31 466.296C728.34 466.693 728.355 467.105 728.377 467.509C728.4 468.004 728.407 468.513 728.415 469.015C728.415 469.427 728.415 469.846 728.415 470.273C728.407 470.783 728.385 471.307 728.362 471.824C728.34 472.251 728.317 472.685 728.287 473.12C728.25 473.652 728.197 474.191 728.145 474.73C728.1 475.165 728.055 475.607 728.002 476.049C727.935 476.603 727.852 477.165 727.762 477.727C727.695 478.168 727.635 478.61 727.552 479.06C727.455 479.644 727.335 480.236 727.215 480.828C727.125 481.27 727.042 481.712 726.952 482.154C726.817 482.775 726.66 483.404 726.51 484.034C726.405 484.468 726.307 484.895 726.195 485.33C726.022 486.011 725.82 486.7 725.625 487.39C725.512 487.794 725.407 488.184 725.287 488.588C725.04 489.42 724.77 490.259 724.492 491.105C724.402 491.382 724.327 491.652 724.23 491.929C723.847 493.053 723.45 494.191 723.015 495.337C722.902 495.644 722.767 495.959 722.647 496.274C722.325 497.12 721.995 497.966 721.642 498.828C721.462 499.27 721.267 499.712 721.08 500.154C720.765 500.895 720.457 501.637 720.127 502.394C719.91 502.888 719.677 503.382 719.452 503.884C719.13 504.596 718.807 505.307 718.47 506.034C718.222 506.558 717.96 507.09 717.705 507.622C717.36 508.326 717.022 509.038 716.662 509.749C716.392 510.289 716.107 510.836 715.822 511.382C715.455 512.094 715.087 512.806 714.705 513.525C714.405 514.087 714.097 514.656 713.79 515.225C713.4 515.937 713.01 516.648 712.612 517.368C712.29 517.944 711.952 518.529 711.622 519.113C711.21 519.832 710.797 520.551 710.37 521.278C710.025 521.869 709.672 522.461 709.32 523.06C708.885 523.795 708.435 524.529 707.985 525.27C707.617 525.862 707.257 526.461 706.882 527.061C706.417 527.81 705.945 528.559 705.465 529.308C705.082 529.914 704.692 530.521 704.295 531.128C703.8 531.885 703.297 532.656 702.795 533.42C702.39 534.027 701.992 534.641 701.58 535.248C701.055 536.027 700.522 536.813 699.982 537.593C699.562 538.207 699.15 538.813 698.722 539.428C698.16 540.244 697.575 541.061 696.997 541.877C696.577 542.469 696.172 543.053 695.745 543.645C695.122 544.514 694.477 545.39 693.832 546.274C693.427 546.829 693.03 547.383 692.61 547.945C691.89 548.919 691.147 549.907 690.405 550.889C690.052 551.353 689.715 551.81 689.362 552.282C689.325 552.327 689.295 552.372 689.257 552.417C689.085 552.641 688.897 552.874 688.725 553.098C687.607 554.559 686.475 556.02 685.312 557.495C684.862 558.065 684.405 558.641 683.947 559.218C682.987 560.424 682.02 561.638 681.037 562.851C680.542 563.458 680.055 564.065 679.552 564.679C678.502 565.967 677.43 567.263 676.342 568.559C675.922 569.061 675.51 569.563 675.082 570.065C673.575 571.855 672.045 573.653 670.485 575.458C670.447 575.503 670.41 575.548 670.372 575.593C670.297 575.675 670.222 575.765 670.147 575.848C667.5 578.904 664.77 581.99 661.957 585.106C661.837 585.241 661.702 585.383 661.582 585.518C658.777 588.619 655.89 591.743 652.92 594.897C652.882 594.942 652.845 594.979 652.807 595.024C652.68 595.159 652.552 595.286 652.425 595.421C650.055 597.93 647.632 600.462 645.165 603.002C644.85 603.324 644.55 603.638 644.235 603.96C641.76 606.5 639.225 609.054 636.652 611.624C636.39 611.886 636.15 612.14 635.887 612.395C635.647 612.635 635.392 612.882 635.145 613.122C632.79 615.459 630.405 617.803 627.967 620.155C627.607 620.5 627.247 620.845 626.887 621.197C624.66 623.347 622.395 625.504 620.1 627.669C619.777 627.976 619.47 628.275 619.147 628.575C618.967 628.74 618.787 628.912 618.607 629.077C616.23 631.317 613.815 633.556 611.362 635.811C610.83 636.305 610.282 636.8 609.742 637.294C607.642 639.219 605.512 641.152 603.36 643.085C602.992 643.414 602.632 643.744 602.265 644.073C602.07 644.246 601.875 644.418 601.68 644.59C599.22 646.793 596.722 649.002 594.202 651.22C593.677 651.676 593.152 652.133 592.627 652.598C590.52 654.441 588.39 656.291 586.245 658.134C585.84 658.486 585.442 658.83 585.03 659.182C584.745 659.429 584.445 659.677 584.16 659.924C581.587 662.126 579 664.328 576.375 666.531C576.157 666.718 575.932 666.898 575.715 667.085C573.285 669.13 570.817 671.175 568.335 673.22C567.975 673.519 567.63 673.812 567.27 674.111C566.865 674.448 566.445 674.778 566.032 675.115C563.805 676.943 561.555 678.778 559.29 680.606C558.78 681.018 558.277 681.43 557.76 681.842C555.03 684.036 552.277 686.239 549.495 688.441C549.262 688.628 549.037 688.808 548.805 688.995C548.332 689.37 547.852 689.737 547.38 690.112C545.145 691.872 542.902 693.632 540.637 695.385C539.872 695.977 539.107 696.576 538.335 697.168C535.462 699.393 532.567 701.617 529.635 703.835C529.56 703.887 529.492 703.947 529.417 703.999C529.14 704.209 528.855 704.419 528.577 704.629C525.9 706.659 523.2 708.688 520.477 710.718C519.667 711.318 518.865 711.925 518.047 712.524C515.22 714.621 512.377 716.719 509.505 718.816C509.295 718.966 509.092 719.123 508.882 719.28C508.822 719.325 508.762 719.363 508.702 719.408C506.19 721.236 503.67 723.071 501.127 724.899C496.837 727.985 492.532 731.033 488.227 734.052C487.837 734.322 487.455 734.606 487.072 734.876C486.93 734.974 486.787 735.071 486.645 735.168C479.302 740.307 471.952 745.341 464.602 750.277C464.37 750.434 464.137 750.599 463.912 750.749C463.605 750.959 463.29 751.161 462.982 751.363C459.232 753.873 455.482 756.36 451.732 758.817C451.012 759.288 450.3 759.753 449.58 760.217C446.002 762.554 442.425 764.869 438.855 767.154C438.57 767.334 438.285 767.521 438 767.708C437.917 767.76 437.835 767.805 437.76 767.858C432.3 771.341 426.84 774.772 421.395 778.135C421.372 778.15 421.357 778.158 421.335 778.173C415.867 781.551 410.415 784.862 404.977 788.113C404.91 788.158 404.835 788.195 404.767 788.24C404.595 788.345 404.422 788.442 404.25 788.547C399.195 791.566 394.147 794.54 389.122 797.446C388.837 797.611 388.552 797.776 388.26 797.941C383.272 800.817 378.307 803.649 373.365 806.413C373.057 806.585 372.75 806.757 372.442 806.93C367.522 809.679 362.625 812.368 357.757 814.997C357.427 815.177 357.097 815.349 356.767 815.529C351.93 818.136 347.122 820.683 342.345 823.177C341.97 823.372 341.602 823.559 341.227 823.754C336.495 826.211 331.785 828.615 327.105 830.96C326.707 831.155 326.317 831.349 325.927 831.544C321.285 833.866 316.665 836.128 312.09 838.323C311.677 838.518 311.272 838.713 310.867 838.908C306.315 841.087 301.8 843.207 297.33 845.267C296.902 845.462 296.482 845.649 296.062 845.844C291.615 847.881 287.197 849.859 282.832 851.777C282.675 851.844 282.517 851.919 282.36 851.986C281.902 852.189 281.46 852.368 281.002 852.571C278.497 853.657 276.007 854.728 273.532 855.777C272.767 856.099 272.002 856.428 271.245 856.743C268.267 857.994 265.312 859.215 262.38 860.406C261.915 860.593 261.45 860.773 260.985 860.96C258.45 861.979 255.937 862.975 253.44 863.949C252.66 864.256 251.872 864.563 251.092 864.863C248.19 865.979 245.31 867.08 242.46 868.136C242.46 868.136 242.445 868.136 242.437 868.144C242.265 868.211 242.092 868.271 241.912 868.331C239.805 869.11 237.705 869.874 235.62 870.616C234.847 870.893 234.082 871.155 233.31 871.425C231.825 871.949 230.347 872.474 228.877 872.975C227.985 873.283 227.107 873.575 226.222 873.874C224.887 874.324 223.552 874.773 222.232 875.208C221.302 875.515 220.38 875.807 219.457 876.107C218.205 876.511 216.96 876.916 215.722 877.305C215.415 877.402 215.107 877.507 214.8 877.597C214.477 877.695 214.17 877.784 213.847 877.882C210.577 878.901 207.337 879.874 204.157 880.788C203.955 880.848 203.752 880.901 203.55 880.961C200.415 881.852 197.325 882.691 194.287 883.485C194.04 883.552 193.785 883.627 193.537 883.687C193.417 883.717 193.305 883.74 193.185 883.77C190.522 884.451 187.905 885.088 185.317 885.695C184.74 885.83 184.162 885.957 183.585 886.092C181.035 886.676 178.515 887.223 176.047 887.725C175.98 887.74 175.912 887.755 175.845 887.77C175.83 887.77 175.815 887.77 175.792 887.777C173.46 888.249 171.18 888.669 168.915 889.066C168.322 889.17 167.73 889.268 167.137 889.373C165.217 889.695 163.32 889.994 161.452 890.264C161.182 890.302 160.905 890.354 160.635 890.391C160.545 890.406 160.462 890.414 160.372 890.421C158.317 890.706 156.307 890.961 154.32 891.178C153.817 891.23 153.322 891.283 152.82 891.328C151.297 891.485 149.79 891.62 148.305 891.74C147.975 891.762 147.637 891.807 147.307 891.83C147.067 891.845 146.842 891.852 146.602 891.867C144.975 891.979 143.37 892.069 141.795 892.129C141.57 892.137 141.337 892.152 141.112 892.159C139.335 892.219 137.595 892.242 135.885 892.234C135.727 892.234 135.555 892.242 135.397 892.234C135.067 892.234 134.76 892.212 134.437 892.204C133.207 892.189 131.992 892.152 130.8 892.099C130.282 892.077 129.772 892.054 129.262 892.024C127.942 891.949 126.645 891.845 125.377 891.717C125.152 891.695 124.912 891.687 124.695 891.665C124.642 891.665 124.59 891.65 124.537 891.642C123.015 891.478 121.53 891.275 120.082 891.043C119.692 890.983 119.325 890.908 118.942 890.841C117.862 890.654 116.805 890.444 115.777 890.219C115.545 890.167 115.297 890.129 115.065 890.077C114.87 890.032 114.697 889.972 114.502 889.927C113.355 889.65 112.237 889.35 111.15 889.021C110.925 888.953 110.692 888.893 110.467 888.826C109.185 888.421 107.955 887.979 106.762 887.5C106.665 887.463 106.552 887.433 106.447 887.388C106.237 887.305 106.05 887.2 105.84 887.11C104.917 886.721 104.017 886.309 103.147 885.867C102.825 885.702 102.502 885.545 102.187 885.38C101.092 884.796 100.02 884.182 99.0147 883.515C98.9472 883.47 98.8872 883.432 98.8197 883.388C98.6997 883.305 98.6098 883.215 98.4898 883.133C97.5223 882.466 96.6148 881.77 95.7523 881.035C95.4598 880.788 95.1747 880.534 94.8972 880.279C94.1622 879.612 93.4647 878.916 92.8122 878.197C92.6697 878.039 92.4972 877.897 92.3547 877.74C92.2947 877.672 92.2498 877.59 92.1898 877.522C91.4548 876.661 90.7648 875.784 90.1423 874.856L74.4148 851.507L74.4222 851.567Z" fill="url(#paint3_linear_2003_64)"/>
<g style="mix-blend-mode:screen">
<path d="M83.3022 860.226C130.05 888.152 234.495 843.964 281.25 823.147C421.98 757.775 597.907 638.485 687.412 510.851C702.982 486.348 729.9 439.816 698.437 417.906C729.487 439.996 701.925 486.109 686.22 510.064C598.372 634.815 418.267 756.382 280.44 821.387C234.135 842.181 129.322 887.253 83.2947 860.226H83.3022Z" fill="url(#paint4_linear_2003_64)"/>
</g>
<path d="M450.005 727.223C624.725 609.828 740.029 475.561 707.542 427.33C675.055 379.099 507.081 435.168 332.36 552.563C157.639 669.958 42.3356 804.224 74.8223 852.455C107.309 900.687 275.284 844.618 450.005 727.223Z" fill="url(#paint5_linear_2003_64)"/>
<path d="M450.005 727.223C624.725 609.828 740.029 475.561 707.542 427.33C675.055 379.099 507.081 435.168 332.36 552.563C157.639 669.958 42.3356 804.224 74.8223 852.455C107.309 900.687 275.284 844.618 450.005 727.223Z" fill="url(#paint6_linear_2003_64)"/>
<path style="mix-blend-mode:screen" d="M634.63 338.713C635.058 338.196 635.44 337.649 635.808 337.08C635.905 336.93 635.995 336.766 636.085 336.608C636.385 336.106 636.67 335.59 636.925 335.058C637.023 334.855 637.12 334.646 637.21 334.436C637.48 333.814 637.728 333.178 637.945 332.503C637.983 332.376 638.035 332.264 638.073 332.136C638.283 331.447 638.448 330.728 638.598 329.994C638.643 329.784 638.673 329.574 638.71 329.365C638.815 328.788 638.898 328.204 638.958 327.604C638.98 327.41 639.003 327.215 639.025 327.013C639.093 326.249 639.138 325.462 639.153 324.661C639.153 324.526 639.153 324.376 639.153 324.241C639.153 323.559 639.138 322.863 639.1 322.159C639.085 321.896 639.07 321.634 639.048 321.372C639.003 320.743 638.943 320.099 638.86 319.454C638.83 319.222 638.815 318.998 638.778 318.765C638.665 317.896 638.523 317.013 638.358 316.106C638.328 315.949 638.29 315.777 638.26 315.619C638.11 314.87 637.953 314.106 637.765 313.335C637.698 313.042 637.623 312.743 637.548 312.443C637.375 311.747 637.188 311.042 636.985 310.331C636.91 310.054 636.835 309.784 636.753 309.499C636.46 308.518 636.153 307.529 635.815 306.518C635.77 306.391 635.725 306.263 635.68 306.136C635.373 305.245 635.05 304.338 634.705 303.417C634.585 303.102 634.465 302.788 634.338 302.465C634.015 301.634 633.678 300.795 633.325 299.949C633.213 299.671 633.1 299.394 632.98 299.117C632.515 298.016 632.02 296.907 631.503 295.784C631.413 295.589 631.315 295.387 631.225 295.192C630.753 294.173 630.25 293.14 629.74 292.091C629.583 291.769 629.418 291.447 629.253 291.117C628.638 289.889 628 288.653 627.333 287.402C627.31 287.357 627.288 287.312 627.265 287.274C626.553 285.941 625.803 284.593 625.03 283.237C624.858 282.93 624.678 282.615 624.498 282.3C623.71 280.922 622.893 279.536 622.045 278.128C621.925 277.933 621.805 277.739 621.693 277.544C620.718 275.933 619.705 274.308 618.648 272.667C618.58 272.562 618.513 272.458 618.445 272.353C617.373 270.682 616.255 268.997 615.108 267.296C614.89 266.974 614.673 266.652 614.455 266.323C614.02 265.678 613.57 265.034 613.128 264.39C612.798 263.911 612.468 263.431 612.13 262.952C611.65 262.27 611.163 261.581 610.675 260.899C610.353 260.442 610.03 259.985 609.7 259.529C609.168 258.787 608.628 258.045 608.08 257.296C607.78 256.884 607.488 256.472 607.18 256.06C606.438 255.057 605.68 254.038 604.923 253.027C604.81 252.877 604.698 252.727 604.585 252.57C603.49 251.116 602.365 249.656 601.225 248.188C600.918 247.791 600.61 247.394 600.295 246.997C599.305 245.731 598.3 244.465 597.28 243.184C597.093 242.952 596.913 242.719 596.718 242.48C595.533 241.004 594.318 239.521 593.088 238.023C592.773 237.641 592.458 237.259 592.135 236.877C591.108 235.641 590.065 234.397 589.008 233.146C588.753 232.839 588.498 232.539 588.235 232.232C586.383 230.06 584.485 227.865 582.558 225.67C582.37 225.461 582.19 225.251 582.01 225.041C580.06 222.831 578.065 220.607 576.033 218.374C575.853 218.172 575.673 217.97 575.485 217.768C573.438 215.52 571.338 213.266 569.208 210.996C569.028 210.801 568.848 210.614 568.668 210.419C566.523 208.142 564.325 205.857 562.105 203.558C561.933 203.378 561.76 203.198 561.58 203.018C559.33 200.704 557.035 198.382 554.71 196.06C554.553 195.902 554.395 195.745 554.238 195.588C551.89 193.25 549.498 190.906 547.075 188.554C546.925 188.404 546.775 188.254 546.618 188.112C544.18 185.752 541.698 183.393 539.185 181.026C539.043 180.891 538.9 180.756 538.758 180.621C536.223 178.239 533.65 175.857 531.04 173.475C530.92 173.363 530.793 173.25 530.673 173.138C527.868 170.576 525.025 168.022 522.145 165.467C522.138 165.46 522.123 165.445 522.115 165.437C519.243 162.891 516.34 160.351 513.4 157.819C513.205 157.647 513.003 157.482 512.808 157.31C510.88 155.654 508.938 153.999 506.98 152.351C506.59 152.021 506.2 151.692 505.803 151.355C503.748 149.624 501.678 147.902 499.585 146.186C499.285 145.939 498.978 145.692 498.678 145.445C494.575 142.081 490.42 138.725 486.213 135.399C485.905 135.16 485.598 134.92 485.298 134.68C482.823 132.733 480.333 130.793 477.828 128.86C476.343 127.714 474.858 126.583 473.373 125.459C473.208 125.332 473.043 125.212 472.885 125.092C471.19 123.811 469.503 122.545 467.815 121.287C467.328 120.92 466.84 120.56 466.353 120.201C464.718 118.987 463.09 117.789 461.463 116.605C461.253 116.448 461.035 116.291 460.818 116.133C459.033 114.837 457.255 113.556 455.485 112.291C455.02 111.953 454.555 111.624 454.083 111.294C452.665 110.291 451.255 109.294 449.853 108.305C449.425 108.006 448.998 107.706 448.57 107.407C446.823 106.186 445.075 104.98 443.335 103.789C443.02 103.571 442.705 103.362 442.39 103.144C440.943 102.156 439.495 101.174 438.048 100.208C437.553 99.8784 437.065 99.5488 436.57 99.2192C434.943 98.1331 433.323 97.0544 431.71 95.9982C431.59 95.9233 431.47 95.8409 431.35 95.7585C429.625 94.6274 427.9 93.5113 426.19 92.4176C425.733 92.1255 425.283 91.8333 424.825 91.5487C423.385 90.6273 421.945 89.721 420.513 88.8221C420.168 88.6048 419.815 88.3801 419.47 88.1704C417.76 87.0992 416.058 86.0505 414.363 85.0168C413.98 84.7846 413.605 84.5598 413.23 84.3276C411.738 83.4212 410.253 82.5224 408.768 81.6459C408.4 81.4287 408.033 81.204 407.665 80.9868C405.948 79.968 404.23 78.9643 402.535 77.983C402.19 77.7807 401.845 77.586 401.493 77.3837C399.85 76.4399 398.215 75.511 396.595 74.5971C396.333 74.4473 396.063 74.2975 395.8 74.1477C394.03 73.1589 392.275 72.1926 390.528 71.2413C390.153 71.0391 389.785 70.8368 389.41 70.6345C387.49 69.6008 385.585 68.5821 383.695 67.5933C383.463 67.4735 383.238 67.3536 383.005 67.2337C381.115 66.2525 379.24 65.2937 377.388 64.3648C377.26 64.2974 377.133 64.2375 377.005 64.17C374.68 63.009 372.385 61.8929 370.12 60.8142C370.023 60.7692 369.925 60.7168 369.828 60.6719C367.555 59.5932 365.305 58.5595 363.093 57.5632C363.003 57.5258 362.913 57.4808 362.823 57.4359C361.51 56.8516 360.22 56.2823 358.93 55.7205C358.57 55.5632 358.21 55.4134 357.85 55.2561C356.92 54.859 355.99 54.462 355.075 54.08C354.633 53.9002 354.198 53.7205 353.763 53.5407C352.893 53.1886 352.038 52.8365 351.175 52.4995C350.77 52.3347 350.358 52.1699 349.953 52.0126C348.903 51.6006 347.868 51.2036 346.84 50.814C346.645 50.7391 346.45 50.6642 346.263 50.5968C345.933 50.4695 345.603 50.3571 345.273 50.2298C344.583 49.9751 343.893 49.7204 343.218 49.4732C342.813 49.3234 342.415 49.1886 342.01 49.0462C341.41 48.8365 340.81 48.6193 340.218 48.417C339.79 48.2672 339.37 48.1324 338.943 47.99C338.38 47.8028 337.818 47.6155 337.27 47.4282C336.843 47.2859 336.415 47.1511 335.988 47.0162C335.448 46.844 334.908 46.6717 334.375 46.5069C333.948 46.372 333.52 46.2447 333.1 46.1174C332.583 45.96 332.058 45.8027 331.548 45.6529C331.12 45.5256 330.7 45.4132 330.28 45.2934C329.778 45.151 329.268 45.0087 328.773 44.8739C328.353 44.7615 327.94 44.6492 327.528 44.5443C327.033 44.417 326.538 44.2896 326.05 44.1623C325.645 44.0574 325.233 43.96 324.828 43.8626C324.34 43.7428 323.86 43.6304 323.388 43.5181C322.99 43.4282 322.593 43.3383 322.195 43.2484C321.723 43.1435 321.25 43.0461 320.778 42.9413C320.395 42.8589 320.005 42.7765 319.623 42.7016C319.15 42.6117 318.693 42.5218 318.228 42.4319C317.853 42.3645 317.485 42.2896 317.118 42.2297C316.653 42.1473 316.195 42.0724 315.738 41.9974C315.385 41.9375 315.025 41.8776 314.673 41.8252C314.208 41.7577 313.75 41.6903 313.293 41.6304C312.963 41.5855 312.625 41.5405 312.303 41.4956C311.815 41.4356 311.343 41.3832 310.863 41.3308C310.578 41.3008 310.285 41.2634 310 41.2334C309.438 41.181 308.883 41.136 308.328 41.0986C308.14 41.0836 307.945 41.0686 307.758 41.0536C307.023 41.0087 306.303 40.9712 305.59 40.9412C305.41 40.9412 305.23 40.9413 305.05 40.9338C304.525 40.9188 304 40.9113 303.49 40.9113C303.235 40.9113 302.988 40.9188 302.733 40.9263C302.305 40.9263 301.885 40.9338 301.465 40.9487C301.188 40.9562 300.918 40.9787 300.64 40.9937C300.258 41.0162 299.883 41.0311 299.508 41.0611C299.23 41.0836 298.96 41.1135 298.683 41.136C298.33 41.1735 297.97 41.2034 297.625 41.2484C297.355 41.2783 297.085 41.3233 296.815 41.3607C296.478 41.4057 296.14 41.4581 295.818 41.5105C295.555 41.5555 295.293 41.6079 295.03 41.6529C294.715 41.7128 294.393 41.7802 294.085 41.8476C293.83 41.9076 293.575 41.9675 293.328 42.0274C293.02 42.1023 292.72 42.1772 292.428 42.2671C292.18 42.3345 291.94 42.4094 291.708 42.4769C291.415 42.5667 291.13 42.6566 290.853 42.754C290.62 42.8364 290.388 42.9188 290.163 43.0012C289.885 43.1061 289.623 43.2109 289.353 43.3233C289.135 43.4132 288.91 43.5031 288.7 43.6005C288.438 43.7203 288.183 43.8402 287.928 43.9675C287.725 44.0724 287.515 44.1698 287.32 44.2746C287.065 44.4095 286.825 44.5518 286.585 44.6941C286.398 44.8065 286.203 44.9113 286.023 45.0312C285.783 45.181 285.55 45.3458 285.318 45.5106C285.145 45.6305 284.973 45.7428 284.808 45.8702C284.575 46.0424 284.35 46.2297 284.125 46.417C283.975 46.5368 283.818 46.6567 283.675 46.784C283.435 46.9938 283.203 47.2185 282.978 47.4432C282.865 47.5556 282.745 47.6604 282.633 47.7728C282.295 48.1174 281.98 48.4694 281.673 48.844L292.39 35.8176C292.698 35.4505 293.013 35.091 293.35 34.7464C293.463 34.634 293.583 34.5292 293.695 34.4168C293.928 34.1921 294.153 33.9674 294.393 33.7576C294.535 33.6303 294.693 33.5179 294.843 33.3906C295.068 33.2033 295.293 33.016 295.525 32.8438C295.69 32.7239 295.863 32.6041 296.035 32.4842C296.268 32.3194 296.5 32.1621 296.74 32.0048C296.928 31.8849 297.115 31.7801 297.303 31.6677C297.543 31.5254 297.79 31.3831 298.038 31.2482C298.24 31.1434 298.443 31.0385 298.645 30.9411C298.9 30.8138 299.155 30.6864 299.418 30.5741C299.628 30.4767 299.853 30.3868 300.07 30.2969C300.34 30.1845 300.61 30.0797 300.888 29.9748C301.113 29.8924 301.345 29.81 301.57 29.7276C301.855 29.6302 302.14 29.5403 302.433 29.4505C302.673 29.3755 302.913 29.3081 303.153 29.2407C303.445 29.1583 303.753 29.0834 304.053 29.0085C304.3 28.9486 304.555 28.8886 304.81 28.8287C305.125 28.7613 305.44 28.6939 305.763 28.634C306.025 28.5815 306.28 28.5366 306.543 28.4916C306.873 28.4392 307.21 28.3868 307.548 28.3418C307.81 28.3044 308.08 28.2669 308.35 28.2295C308.703 28.1845 309.063 28.1546 309.423 28.1171C309.693 28.0946 309.955 28.0647 310.233 28.0422C310.615 28.0122 311.005 27.9898 311.388 27.9748C311.65 27.9598 311.913 27.9448 312.183 27.9298C312.603 27.9149 313.03 27.9074 313.465 27.8999C313.713 27.8999 313.96 27.8849 314.215 27.8849C314.733 27.8849 315.265 27.8999 315.798 27.9074C315.97 27.9074 316.143 27.9074 316.315 27.9149C317.028 27.9373 317.748 27.9748 318.483 28.0272C318.678 28.0422 318.888 28.0572 319.083 28.0722C319.623 28.1096 320.17 28.1546 320.725 28.207C321.01 28.237 321.295 28.2669 321.588 28.2969C322.068 28.3493 322.548 28.4017 323.035 28.4617C323.358 28.4991 323.68 28.5516 324.003 28.589C324.468 28.6489 324.933 28.7164 325.405 28.7838C325.75 28.8362 326.103 28.8961 326.448 28.9486C326.913 29.0235 327.378 29.0984 327.85 29.1808C328.21 29.2407 328.57 29.3156 328.938 29.383C329.41 29.4729 329.883 29.5628 330.355 29.6527C330.73 29.7276 331.113 29.81 331.488 29.8849C331.96 29.9823 332.44 30.0872 332.92 30.192C333.31 30.2819 333.7 30.3718 334.098 30.4617C334.578 30.5741 335.065 30.6864 335.553 30.8063C335.95 30.9037 336.355 31.001 336.76 31.1059C337.255 31.2333 337.758 31.3606 338.26 31.4954C338.665 31.6003 339.07 31.7127 339.475 31.8175C339.985 31.9524 340.495 32.1022 341.013 32.2445C341.425 32.3644 341.845 32.4767 342.258 32.6041C342.783 32.7539 343.308 32.9112 343.833 33.0685C344.253 33.1958 344.673 33.3232 345.093 33.4505C345.633 33.6153 346.173 33.7876 346.713 33.9599C347.14 34.0947 347.56 34.2295 347.988 34.3644C348.55 34.5516 349.12 34.7389 349.698 34.9337C350.11 35.0685 350.515 35.2033 350.928 35.3457C351.535 35.5554 352.15 35.7726 352.765 35.9899C353.155 36.1247 353.545 36.2595 353.935 36.4019C354.618 36.6491 355.315 36.9037 356.005 37.1584C356.335 37.2783 356.658 37.3981 356.988 37.518C357.018 37.533 357.048 37.5405 357.085 37.5554C357.243 37.6154 357.408 37.6828 357.573 37.7427C358.6 38.1322 359.643 38.5292 360.685 38.9412C361.09 39.0985 361.503 39.2633 361.908 39.4281C362.763 39.7727 363.625 40.1173 364.495 40.4768C364.93 40.6566 365.365 40.8364 365.8 41.0162C366.723 41.3982 367.645 41.7952 368.583 42.1922C368.943 42.3495 369.303 42.4993 369.663 42.6566C370.945 43.2109 372.243 43.7802 373.555 44.3645C373.585 44.3795 373.623 44.3945 373.653 44.4095C373.713 44.4394 373.78 44.4694 373.84 44.4919C376.053 45.4881 378.295 46.5219 380.568 47.6005C380.665 47.6455 380.77 47.6979 380.868 47.7428C383.133 48.8215 385.428 49.9376 387.745 51.0987C387.775 51.1137 387.805 51.1287 387.835 51.1436C387.933 51.1886 388.03 51.2485 388.128 51.2935C389.98 52.2223 391.848 53.1736 393.73 54.1549C393.97 54.2823 394.203 54.4021 394.443 54.522C396.325 55.5032 398.23 56.522 400.15 57.5557C400.345 57.6606 400.533 57.758 400.728 57.8628C400.908 57.9602 401.095 58.0651 401.275 58.1625C403.023 59.1138 404.778 60.0801 406.548 61.0689C406.81 61.2112 407.073 61.361 407.328 61.5108C408.948 62.4172 410.575 63.3461 412.218 64.2899C412.45 64.4247 412.675 64.5446 412.9 64.6794C413.028 64.7543 413.155 64.8292 413.283 64.9041C414.978 65.8854 416.68 66.8817 418.398 67.9004C418.773 68.1251 419.148 68.3499 419.53 68.5746C421 69.451 422.47 70.3349 423.955 71.2413C424.21 71.3986 424.458 71.5409 424.713 71.6982C424.848 71.7806 424.975 71.863 425.11 71.9454C426.798 72.9791 428.5 74.0279 430.203 75.0915C430.555 75.3088 430.908 75.541 431.268 75.7582C432.693 76.6496 434.118 77.556 435.55 78.4699C435.82 78.6421 436.09 78.8069 436.36 78.9867C436.548 79.1066 436.743 79.2339 436.938 79.3613C438.64 80.4549 440.358 81.5635 442.075 82.6872C442.218 82.7845 442.36 82.8744 442.51 82.9718C444.1 84.013 445.698 85.0767 447.303 86.1479C447.535 86.3052 447.768 86.455 448 86.6048C448.263 86.7771 448.525 86.9644 448.788 87.1366C450.22 88.103 451.66 89.0768 453.1 90.058C453.423 90.2828 453.753 90.5 454.075 90.7247C455.808 91.9083 457.54 93.1143 459.288 94.3278C459.43 94.4326 459.58 94.53 459.723 94.6274C460.015 94.8296 460.315 95.0469 460.608 95.2566C462.003 96.2304 463.398 97.2192 464.8 98.2155C465.273 98.5525 465.745 98.8896 466.225 99.2267C467.995 100.493 469.773 101.774 471.55 103.069C471.595 103.099 471.64 103.137 471.685 103.167C471.85 103.287 472.023 103.414 472.188 103.541C473.815 104.725 475.443 105.931 477.078 107.137C477.565 107.496 478.045 107.856 478.533 108.216C480.228 109.474 481.923 110.747 483.618 112.028C483.745 112.126 483.865 112.216 483.993 112.306C484.03 112.335 484.06 112.358 484.098 112.388C485.583 113.512 487.068 114.643 488.553 115.789C491.065 117.721 493.555 119.661 496.03 121.609C496.255 121.781 496.48 121.954 496.698 122.133C496.78 122.201 496.855 122.261 496.938 122.328C501.153 125.654 505.308 129.002 509.41 132.373C509.538 132.478 509.673 132.583 509.8 132.688C509.973 132.83 510.145 132.972 510.318 133.115C512.403 134.83 514.48 136.553 516.535 138.283C516.925 138.613 517.315 138.943 517.713 139.272C519.67 140.92 521.613 142.576 523.54 144.231C523.69 144.366 523.848 144.493 524.005 144.628C524.05 144.666 524.088 144.703 524.133 144.74C527.073 147.272 529.983 149.812 532.848 152.359C532.855 152.366 532.87 152.381 532.878 152.388C535.758 154.943 538.6 157.497 541.398 160.059C541.435 160.089 541.473 160.126 541.503 160.156C541.593 160.239 541.675 160.321 541.765 160.404C544.368 162.786 546.94 165.168 549.475 167.55C549.618 167.685 549.76 167.819 549.91 167.954C552.423 170.314 554.898 172.681 557.343 175.04C557.493 175.19 557.643 175.333 557.793 175.482C560.215 177.827 562.608 180.179 564.955 182.516C565.113 182.674 565.27 182.831 565.428 182.996C567.753 185.318 570.048 187.64 572.298 189.955C572.47 190.134 572.643 190.314 572.823 190.494C575.05 192.786 577.24 195.071 579.385 197.348C579.565 197.543 579.745 197.73 579.925 197.925C582.055 200.187 584.148 202.449 586.203 204.696C586.383 204.899 586.563 205.101 586.75 205.296C588.783 207.528 590.778 209.753 592.728 211.962C592.915 212.172 593.095 212.382 593.275 212.592C595.21 214.794 597.108 216.981 598.953 219.161C599.02 219.236 599.088 219.318 599.155 219.393C599.35 219.618 599.53 219.843 599.725 220.067C600.783 221.318 601.825 222.562 602.853 223.798C603.168 224.18 603.49 224.562 603.805 224.944C605.035 226.434 606.25 227.918 607.435 229.401C607.623 229.633 607.81 229.865 607.998 230.105C609.018 231.378 610.023 232.652 611.013 233.918C611.32 234.315 611.635 234.712 611.943 235.109C613.083 236.577 614.208 238.045 615.31 239.498C615.31 239.498 615.31 239.498 615.318 239.506C615.385 239.596 615.453 239.686 615.513 239.775C616.323 240.854 617.125 241.925 617.905 242.989C618.198 243.386 618.483 243.776 618.768 244.173C619.323 244.929 619.878 245.693 620.418 246.45C620.748 246.907 621.063 247.364 621.385 247.821C621.873 248.51 622.36 249.199 622.84 249.881C623.178 250.36 623.508 250.839 623.838 251.319C624.288 251.963 624.73 252.615 625.165 253.259C625.27 253.416 625.383 253.581 625.495 253.738C625.608 253.903 625.713 254.068 625.825 254.233C626.973 255.933 628.09 257.626 629.163 259.289C629.23 259.394 629.298 259.499 629.365 259.603C630.415 261.251 631.428 262.869 632.41 264.48C632.493 264.607 632.575 264.742 632.658 264.877C632.695 264.937 632.733 264.997 632.77 265.064C633.618 266.472 634.435 267.866 635.23 269.244C635.41 269.551 635.583 269.858 635.755 270.165C636.528 271.529 637.278 272.877 637.99 274.21C638.013 274.248 638.028 274.285 638.05 274.315C638.05 274.323 638.058 274.33 638.065 274.345C638.733 275.604 639.37 276.84 639.985 278.068C640.15 278.39 640.308 278.712 640.465 279.034C640.983 280.083 641.478 281.117 641.958 282.143C642.025 282.293 642.108 282.443 642.175 282.585C642.198 282.63 642.22 282.682 642.235 282.727C642.753 283.851 643.24 284.967 643.713 286.068C643.833 286.345 643.945 286.623 644.058 286.9C644.41 287.746 644.748 288.585 645.07 289.417C645.138 289.596 645.22 289.791 645.295 289.971C645.348 290.106 645.385 290.233 645.438 290.368C645.783 291.282 646.105 292.188 646.413 293.08C646.458 293.207 646.503 293.342 646.548 293.469C646.885 294.48 647.2 295.469 647.485 296.45C647.515 296.54 647.545 296.638 647.575 296.728C647.628 296.915 647.673 297.095 647.725 297.282C647.928 297.994 648.115 298.698 648.288 299.387C648.363 299.686 648.438 299.986 648.505 300.278C648.685 301.05 648.85 301.806 649 302.563C649.023 302.698 649.06 302.833 649.09 302.967C649.09 302.997 649.098 303.027 649.105 303.057C649.27 303.964 649.413 304.848 649.525 305.716C649.555 305.949 649.578 306.173 649.608 306.406C649.683 307.057 649.75 307.702 649.795 308.331C649.803 308.473 649.825 308.623 649.84 308.765C649.84 308.885 649.84 308.997 649.848 309.117C649.885 309.821 649.908 310.518 649.9 311.2C649.9 311.342 649.9 311.484 649.9 311.627C649.885 312.428 649.848 313.215 649.78 313.979C649.78 314.046 649.78 314.114 649.773 314.174C649.758 314.308 649.728 314.436 649.72 314.571C649.653 315.17 649.57 315.754 649.473 316.323C649.435 316.533 649.398 316.75 649.36 316.96C649.21 317.694 649.045 318.406 648.835 319.095C648.82 319.14 648.805 319.185 648.798 319.23C648.775 319.312 648.738 319.38 648.708 319.462C648.49 320.129 648.243 320.773 647.973 321.395C647.883 321.604 647.785 321.814 647.68 322.016C647.425 322.556 647.14 323.073 646.84 323.567C646.773 323.679 646.728 323.799 646.653 323.911C646.623 323.956 646.585 324.001 646.555 324.046C646.188 324.616 645.798 325.162 645.378 325.679L634.66 338.706L634.63 338.713Z" fill="url(#paint7_linear_2003_64)"/>
<g style="mix-blend-mode:screen">
<path d="M638.088 332.136C646.105 300.54 602.778 248.255 582.783 225.026C521.043 155.572 422.267 75.2114 333.542 45.8252C316.787 41.1061 285.422 33.6678 278.23 55.4733C285.595 33.8775 316.825 41.7578 333.288 46.6492C420.07 75.5784 520.87 157.954 581.905 225.798C601.81 248.772 645.715 301.117 638.088 332.144V332.136Z" fill="url(#paint8_linear_2003_64)"/>
</g>
<path d="M635.082 338.422C657.219 311.515 596.143 224.85 498.664 144.851C401.186 64.8521 304.219 21.8124 282.082 48.7194C259.945 75.6263 321.022 162.291 418.5 242.29C515.978 322.289 612.945 365.329 635.082 338.422Z" fill="url(#paint9_linear_2003_64)"/>
<path d="M635.082 338.422C657.219 311.515 596.143 224.85 498.664 144.851C401.186 64.8521 304.219 21.8124 282.082 48.7194C259.945 75.6263 321.022 162.291 418.5 242.29C515.978 322.289 612.945 365.329 635.082 338.422Z" fill="url(#paint10_linear_2003_64)"/>
<path style="mix-blend-mode:screen" d="M297.107 216.021C297.392 216.418 297.655 216.83 297.895 217.265C297.962 217.377 298.015 217.504 298.075 217.624C298.27 217.999 298.45 218.388 298.615 218.793C298.675 218.943 298.742 219.1 298.795 219.257C298.967 219.722 299.117 220.201 299.245 220.695C299.267 220.785 299.297 220.875 299.32 220.965C299.44 221.474 299.53 222.006 299.605 222.546C299.628 222.695 299.642 222.853 299.657 223.01C299.702 223.437 299.74 223.864 299.762 224.306C299.762 224.448 299.777 224.591 299.785 224.74C299.8 225.302 299.792 225.871 299.77 226.463C299.77 226.561 299.755 226.665 299.747 226.77C299.717 227.265 299.673 227.774 299.613 228.283C299.59 228.471 299.567 228.665 299.537 228.853C299.477 229.31 299.402 229.774 299.312 230.246C299.282 230.411 299.26 230.576 299.222 230.748C299.095 231.377 298.96 232.014 298.795 232.666C298.765 232.778 298.727 232.898 298.697 233.018C298.555 233.557 298.405 234.104 298.232 234.666C298.165 234.875 298.097 235.093 298.03 235.302C297.872 235.804 297.7 236.306 297.52 236.815C297.452 237.01 297.385 237.212 297.31 237.407C297.055 238.111 296.785 238.815 296.485 239.542C296.447 239.632 296.41 239.722 296.372 239.812C296.11 240.448 295.832 241.093 295.54 241.744C295.442 241.969 295.337 242.194 295.232 242.418C294.962 243.01 294.677 243.602 294.377 244.209C294.28 244.404 294.19 244.606 294.085 244.801C293.695 245.58 293.29 246.366 292.863 247.168C292.788 247.31 292.705 247.445 292.63 247.587C292.24 248.306 291.827 249.04 291.407 249.774C291.272 250.007 291.145 250.231 291.01 250.464C290.507 251.332 289.99 252.201 289.442 253.085C289.427 253.115 289.405 253.145 289.382 253.175C288.805 254.112 288.197 255.063 287.575 256.014C287.432 256.231 287.29 256.449 287.147 256.673C286.51 257.64 285.85 258.613 285.168 259.602C285.078 259.737 284.972 259.872 284.882 260.007C284.095 261.13 283.285 262.269 282.445 263.423C282.392 263.497 282.34 263.572 282.287 263.647C281.432 264.816 280.54 265.992 279.625 267.183C279.452 267.408 279.28 267.632 279.1 267.865C278.755 268.314 278.395 268.763 278.043 269.213C277.78 269.55 277.517 269.88 277.247 270.217C276.872 270.689 276.482 271.168 276.092 271.647C275.837 271.962 275.582 272.284 275.32 272.599C274.9 273.116 274.465 273.632 274.037 274.149C273.797 274.434 273.565 274.719 273.325 275.011C272.74 275.707 272.14 276.411 271.54 277.116C271.45 277.22 271.36 277.325 271.27 277.43C270.407 278.434 269.522 279.453 268.622 280.471C268.382 280.749 268.135 281.018 267.895 281.295C267.115 282.172 266.327 283.056 265.525 283.94C265.375 284.104 265.232 284.262 265.082 284.427C264.152 285.445 263.2 286.479 262.232 287.505C261.985 287.767 261.737 288.03 261.49 288.299C260.687 289.153 259.87 290.015 259.045 290.876C258.842 291.086 258.647 291.296 258.445 291.505C256.997 293.003 255.52 294.517 254.005 296.03C253.862 296.172 253.72 296.314 253.578 296.464C252.055 297.985 250.502 299.52 248.92 301.056C248.777 301.191 248.635 301.333 248.492 301.468C246.895 303.011 245.267 304.562 243.61 306.112C243.467 306.247 243.332 306.374 243.19 306.509C241.517 308.075 239.822 309.64 238.097 311.206C237.962 311.326 237.827 311.453 237.692 311.573C235.945 313.154 234.167 314.742 232.367 316.33C232.247 316.435 232.127 316.547 232 316.652C230.185 318.247 228.332 319.85 226.465 321.453C226.345 321.551 226.233 321.656 226.113 321.753C224.23 323.363 222.317 324.974 220.375 326.577C220.262 326.667 220.157 326.764 220.045 326.854C218.087 328.472 216.107 330.098 214.097 331.716C214 331.791 213.91 331.865 213.812 331.948C211.652 333.686 209.47 335.416 207.25 337.146C207.242 337.146 207.235 337.161 207.227 337.169C205.022 338.892 202.787 340.607 200.53 342.323C200.38 342.435 200.222 342.555 200.072 342.667C198.595 343.783 197.102 344.899 195.602 346.015C195.302 346.24 195.002 346.465 194.702 346.682C193.127 347.851 191.537 349.012 189.94 350.165C189.707 350.33 189.475 350.502 189.242 350.667C186.1 352.937 182.92 355.184 179.702 357.416C179.47 357.581 179.237 357.738 179.005 357.903C177.115 359.207 175.21 360.51 173.297 361.806C172.165 362.57 171.032 363.327 169.9 364.083C169.772 364.166 169.652 364.248 169.525 364.33C168.235 365.184 166.945 366.031 165.655 366.87C165.28 367.109 164.912 367.357 164.537 367.596C163.292 368.405 162.047 369.207 160.81 369.993C160.645 370.098 160.487 370.203 160.322 370.308C158.965 371.169 157.615 372.023 156.265 372.87C155.912 373.094 155.552 373.312 155.2 373.529C154.12 374.196 153.047 374.862 151.982 375.514C151.66 375.716 151.33 375.911 151.007 376.113C149.68 376.922 148.352 377.724 147.025 378.518C146.785 378.66 146.552 378.802 146.312 378.945C145.21 379.604 144.115 380.248 143.02 380.892C142.645 381.11 142.27 381.327 141.902 381.544C140.672 382.263 139.442 382.975 138.212 383.671C138.122 383.724 138.032 383.776 137.942 383.829C136.63 384.578 135.332 385.304 134.027 386.031C133.682 386.226 133.337 386.413 132.992 386.608C131.897 387.214 130.81 387.814 129.73 388.398C129.467 388.54 129.205 388.683 128.942 388.825C127.645 389.529 126.362 390.218 125.08 390.892C124.795 391.042 124.51 391.192 124.225 391.342C123.092 391.934 121.975 392.518 120.85 393.095C120.572 393.237 120.295 393.379 120.017 393.522C118.72 394.188 117.422 394.84 116.14 395.477C115.877 395.604 115.615 395.739 115.352 395.866C114.115 396.481 112.877 397.087 111.655 397.672C111.46 397.769 111.257 397.866 111.055 397.964C109.72 398.608 108.392 399.23 107.08 399.844C106.795 399.971 106.517 400.106 106.24 400.233C104.792 400.9 103.36 401.552 101.935 402.189C101.762 402.263 101.59 402.338 101.417 402.421C99.9999 403.05 98.5899 403.664 97.1949 404.256C97.0974 404.293 96.9999 404.338 96.9099 404.383C95.1624 405.125 93.445 405.836 91.7425 406.518C91.6675 406.548 91.5924 406.578 91.5249 406.608C89.8149 407.29 88.135 407.941 86.4775 408.571C86.41 408.593 86.3424 408.623 86.2749 408.646C85.2924 409.013 84.3249 409.372 83.3574 409.717C83.0874 409.814 82.8175 409.911 82.5475 410.001C81.85 410.249 81.1599 410.496 80.4699 410.728C80.1399 410.84 79.8174 410.953 79.4874 411.065C78.8424 411.282 78.1974 411.499 77.5599 411.709C77.2524 411.807 76.9525 411.911 76.645 412.009C75.865 412.264 75.0924 412.503 74.3199 412.743C74.1774 412.788 74.035 412.833 73.885 412.878C73.6375 412.953 73.3899 413.028 73.1499 413.095C72.6399 413.252 72.1225 413.402 71.62 413.552C71.32 413.642 71.0199 413.724 70.7199 413.807C70.2774 413.934 69.8275 414.061 69.385 414.181C69.07 414.271 68.755 414.353 68.44 414.436C68.02 414.548 67.6074 414.661 67.1949 414.765C66.8724 414.848 66.5575 414.93 66.2425 415.005C65.8375 415.11 65.4399 415.207 65.0424 415.305C64.7274 415.38 64.4124 415.455 64.0974 415.53C63.7074 415.619 63.3249 415.709 62.9424 415.799C62.6274 415.867 62.3124 415.941 61.9974 416.009C61.6224 416.091 61.2474 416.166 60.8799 416.249C60.5724 416.316 60.265 416.376 59.9575 416.436C59.59 416.511 59.2224 416.578 58.8624 416.646C58.5624 416.706 58.2624 416.758 57.9624 416.81C57.6024 416.87 57.2499 416.938 56.8974 416.99C56.6049 417.043 56.3125 417.088 56.02 417.133C55.6675 417.185 55.3224 417.237 54.9774 417.29C54.6924 417.335 54.4074 417.372 54.1299 417.41C53.7849 417.455 53.4399 417.5 53.1024 417.537C52.8324 417.567 52.5549 417.604 52.2849 417.634C51.9399 417.672 51.6099 417.709 51.2724 417.739C51.0099 417.762 50.7475 417.792 50.4925 417.814C50.1475 417.844 49.8174 417.867 49.4799 417.889C49.2399 417.904 48.9925 417.927 48.7525 417.942C48.3925 417.964 48.0474 417.979 47.6949 417.994C47.4849 418.001 47.2675 418.016 47.0575 418.024C46.645 418.039 46.2399 418.046 45.8349 418.046C45.6999 418.046 45.5575 418.046 45.4225 418.046C44.8825 418.046 44.3575 418.046 43.84 418.024C43.705 418.024 43.5774 418.009 43.4424 418.009C43.0599 417.994 42.6774 417.979 42.3024 417.957C42.1149 417.942 41.9349 417.927 41.7474 417.912C41.4399 417.889 41.125 417.867 40.825 417.837C40.6225 417.814 40.4275 417.792 40.225 417.769C39.9475 417.739 39.6699 417.709 39.3999 417.664C39.1974 417.634 39.0024 417.604 38.7999 417.574C38.5449 417.537 38.2824 417.492 38.0349 417.447C37.8399 417.41 37.645 417.372 37.45 417.327C37.21 417.275 36.9624 417.23 36.7299 417.17C36.5349 417.125 36.3474 417.08 36.1599 417.028C35.9274 416.968 35.7024 416.908 35.4774 416.84C35.2974 416.788 35.1099 416.736 34.9374 416.676C34.7199 416.608 34.5024 416.533 34.2924 416.466C34.1199 416.406 33.9474 416.346 33.7749 416.279C33.5649 416.204 33.3624 416.121 33.1674 416.039C33.0024 415.971 32.8375 415.897 32.6725 415.829C32.4775 415.739 32.2899 415.649 32.0949 415.559C31.9374 415.485 31.7799 415.41 31.6299 415.327C31.4424 415.23 31.2625 415.125 31.0825 415.02C30.94 414.938 30.79 414.855 30.655 414.765C30.475 414.653 30.31 414.541 30.1375 414.428C30.0025 414.338 29.8749 414.249 29.7399 414.159C29.5674 414.039 29.4099 413.912 29.2449 413.777C29.1249 413.679 29.005 413.589 28.885 413.492C28.72 413.357 28.57 413.207 28.4125 413.065C28.3075 412.968 28.2024 412.878 28.1049 412.78C27.9399 412.616 27.7824 412.443 27.6249 412.271C27.5499 412.181 27.46 412.099 27.385 412.016C27.16 411.754 26.9424 411.477 26.7324 411.192L33.9475 421.17C34.15 421.455 34.3675 421.724 34.6 421.994C34.675 422.084 34.7575 422.166 34.84 422.249C34.9975 422.421 35.1549 422.593 35.3199 422.758C35.4174 422.855 35.5225 422.945 35.6275 423.043C35.785 423.185 35.935 423.335 36.1 423.47C36.2125 423.567 36.3399 423.657 36.4524 423.754C36.6174 423.882 36.775 424.009 36.9475 424.136C37.075 424.226 37.2099 424.316 37.3449 424.406C37.5174 424.518 37.6824 424.638 37.8624 424.743C38.0049 424.833 38.1474 424.915 38.2899 424.998C38.4699 425.103 38.6499 425.208 38.8374 425.305C38.9874 425.387 39.1449 425.462 39.3024 425.537C39.4899 425.627 39.6849 425.724 39.8799 425.807C40.0374 425.882 40.2025 425.949 40.3675 426.017C40.57 426.099 40.7724 426.181 40.9824 426.256C41.1549 426.324 41.3274 426.384 41.4999 426.444C41.7099 426.518 41.9275 426.586 42.145 426.653C42.325 426.713 42.5049 426.766 42.6849 426.818C42.9099 426.885 43.135 426.945 43.3675 427.005C43.555 427.05 43.7425 427.103 43.93 427.148C44.17 427.2 44.4099 427.253 44.6574 427.305C44.8524 427.342 45.04 427.387 45.235 427.425C45.49 427.47 45.7524 427.515 46.0149 427.552C46.2099 427.582 46.405 427.62 46.6 427.642C46.8775 427.679 47.155 427.709 47.44 427.747C47.635 427.769 47.8224 427.792 48.0174 427.814C48.3249 427.844 48.64 427.867 48.9475 427.889C49.1275 427.904 49.3075 427.919 49.495 427.934C49.87 427.957 50.2599 427.972 50.6499 427.987C50.7774 427.987 50.8974 428.002 51.0249 428.002C51.5424 428.017 52.0749 428.024 52.6074 428.024C52.7499 428.024 52.8999 428.024 53.0499 428.017C53.4474 428.017 53.8449 428.009 54.2499 427.994C54.4599 427.994 54.6699 427.972 54.8799 427.964C55.2324 427.949 55.5849 427.934 55.9449 427.912C56.1774 427.897 56.4174 427.874 56.6574 427.859C57.0024 427.837 57.3399 427.807 57.6849 427.777C57.9399 427.754 58.195 427.724 58.45 427.702C58.795 427.672 59.1325 427.635 59.485 427.597C59.7475 427.567 60.0175 427.537 60.2875 427.5C60.6325 427.455 60.9849 427.417 61.3374 427.365C61.6149 427.327 61.8924 427.29 62.1774 427.245C62.5299 427.193 62.8825 427.14 63.235 427.088C63.52 427.043 63.8124 426.998 64.1049 426.945C64.4649 426.885 64.8174 426.826 65.1849 426.758C65.4774 426.706 65.7774 426.653 66.0774 426.593C66.4449 426.526 66.8124 426.451 67.1874 426.376C67.4874 426.316 67.7874 426.256 68.0874 426.196C68.4624 426.121 68.845 426.039 69.2275 425.957C69.535 425.889 69.8424 425.822 70.1499 425.754C70.5399 425.664 70.9299 425.575 71.3199 425.485C71.6274 425.41 71.9424 425.342 72.2574 425.26C72.6549 425.163 73.06 425.065 73.465 424.96C73.78 424.878 74.0949 424.803 74.4099 424.721C74.8299 424.608 75.2574 424.496 75.6774 424.384C75.9849 424.301 76.285 424.219 76.5925 424.136C77.0425 424.009 77.5 423.882 77.9575 423.754C78.25 423.672 78.5349 423.59 78.8274 423.507C79.3374 423.357 79.8549 423.2 80.3724 423.05C80.6124 422.975 80.86 422.908 81.1 422.833C81.1225 422.833 81.1449 422.818 81.1749 422.811C81.2949 422.773 81.4149 422.736 81.5349 422.698C82.2999 422.458 83.08 422.219 83.86 421.964C84.16 421.867 84.4674 421.762 84.7749 421.664C85.4124 421.455 86.0575 421.237 86.71 421.02C87.0325 420.908 87.3549 420.803 87.6849 420.691C88.3749 420.451 89.065 420.211 89.7625 419.964C90.0325 419.867 90.3025 419.777 90.5725 419.679C91.5325 419.335 92.5074 418.975 93.4824 418.608C93.5049 418.601 93.5275 418.593 93.5575 418.578C93.6025 418.563 93.6475 418.541 93.7 418.526C95.3575 417.904 97.0374 417.252 98.7399 416.571C98.8149 416.541 98.89 416.511 98.965 416.481C100.667 415.799 102.385 415.088 104.125 414.346C104.147 414.338 104.17 414.331 104.192 414.316C104.267 414.286 104.342 414.249 104.41 414.219C105.797 413.627 107.207 413.013 108.625 412.391C108.805 412.308 108.977 412.234 109.157 412.151C110.575 411.522 112.007 410.87 113.455 410.204C113.597 410.136 113.74 410.076 113.89 410.009C114.025 409.949 114.167 409.881 114.302 409.814C115.615 409.2 116.942 408.578 118.277 407.934C118.472 407.837 118.667 407.739 118.87 407.649C120.092 407.057 121.322 406.458 122.56 405.844C122.732 405.762 122.905 405.679 123.077 405.589C123.175 405.544 123.272 405.492 123.362 405.447C124.645 404.81 125.927 404.159 127.225 403.499C127.51 403.357 127.795 403.207 128.08 403.057C129.19 402.488 130.307 401.904 131.425 401.32C131.62 401.222 131.807 401.125 131.995 401.02C132.092 400.968 132.197 400.915 132.295 400.855C133.57 400.181 134.86 399.492 136.15 398.795C136.42 398.653 136.682 398.503 136.952 398.353C138.025 397.769 139.112 397.177 140.192 396.57C140.395 396.458 140.605 396.346 140.807 396.233C140.95 396.151 141.1 396.069 141.242 395.986C142.532 395.267 143.83 394.533 145.135 393.791C145.247 393.731 145.352 393.664 145.465 393.604C146.672 392.915 147.887 392.218 149.102 391.507C149.275 391.402 149.455 391.304 149.627 391.2C149.83 391.087 150.025 390.96 150.227 390.848C151.315 390.211 152.41 389.567 153.505 388.915C153.752 388.765 154 388.623 154.247 388.473C155.56 387.686 156.88 386.892 158.207 386.083C158.32 386.016 158.425 385.949 158.537 385.881C158.762 385.746 158.987 385.604 159.212 385.462C160.27 384.81 161.335 384.158 162.4 383.492C162.76 383.267 163.12 383.042 163.48 382.817C164.83 381.978 166.18 381.125 167.537 380.263C167.575 380.241 167.605 380.218 167.642 380.196C167.77 380.113 167.897 380.031 168.025 379.948C169.262 379.154 170.507 378.36 171.752 377.551C172.12 377.312 172.495 377.072 172.862 376.832C174.152 375.993 175.442 375.139 176.74 374.285C176.837 374.226 176.927 374.158 177.025 374.098C177.055 374.083 177.077 374.061 177.107 374.046C178.24 373.297 179.372 372.533 180.505 371.769C182.425 370.473 184.322 369.169 186.22 367.866C186.392 367.746 186.565 367.634 186.73 367.514C186.79 367.469 186.85 367.424 186.917 367.387C190.135 365.154 193.322 362.9 196.457 360.637C196.555 360.562 196.66 360.495 196.757 360.428C196.892 360.33 197.02 360.233 197.155 360.135C198.752 358.974 200.342 357.813 201.917 356.652C202.217 356.428 202.517 356.203 202.817 355.986C204.317 354.869 205.81 353.753 207.287 352.637C207.407 352.547 207.527 352.457 207.64 352.368C207.67 352.345 207.708 352.315 207.738 352.293C209.995 350.577 212.23 348.862 214.435 347.139C214.442 347.139 214.45 347.124 214.457 347.117C216.67 345.386 218.86 343.656 221.012 341.918C221.042 341.896 221.065 341.873 221.095 341.851C221.162 341.798 221.23 341.738 221.297 341.686C223.307 340.068 225.287 338.45 227.245 336.832C227.357 336.742 227.47 336.645 227.575 336.555C229.51 334.944 231.422 333.341 233.312 331.731C233.432 331.633 233.545 331.528 233.665 331.431C235.54 329.828 237.385 328.232 239.2 326.629C239.32 326.525 239.447 326.412 239.567 326.307C241.367 324.719 243.145 323.131 244.892 321.551C245.027 321.431 245.162 321.303 245.297 321.184C247.022 319.611 248.725 318.045 250.39 316.487C250.533 316.352 250.667 316.225 250.81 316.09C252.467 314.539 254.095 312.989 255.692 311.446C255.835 311.311 255.977 311.169 256.12 311.034C257.702 309.498 259.255 307.97 260.777 306.442C260.92 306.3 261.062 306.157 261.205 306.007C262.712 304.494 264.197 302.981 265.645 301.483C265.697 301.431 265.75 301.378 265.802 301.318C265.952 301.161 266.095 301.004 266.245 300.854C267.07 299.992 267.887 299.131 268.69 298.277C268.937 298.015 269.185 297.753 269.432 297.483C270.4 296.449 271.345 295.423 272.282 294.404C272.432 294.239 272.575 294.082 272.725 293.917C273.527 293.033 274.315 292.15 275.095 291.273C275.342 290.996 275.582 290.726 275.822 290.449C276.722 289.43 277.607 288.412 278.47 287.408C278.522 287.348 278.575 287.288 278.627 287.221C279.265 286.472 279.895 285.73 280.517 284.988C280.75 284.711 280.975 284.442 281.2 284.164C281.635 283.633 282.077 283.108 282.505 282.584C282.767 282.262 283.015 281.947 283.277 281.633C283.667 281.153 284.05 280.674 284.432 280.202C284.702 279.865 284.957 279.535 285.22 279.198C285.572 278.749 285.932 278.299 286.277 277.85C286.36 277.737 286.45 277.625 286.54 277.52C286.63 277.4 286.712 277.288 286.802 277.176C287.717 275.985 288.602 274.808 289.465 273.64C289.517 273.565 289.57 273.49 289.622 273.415C290.462 272.262 291.272 271.123 292.06 269.999C292.12 269.91 292.195 269.812 292.255 269.722C292.285 269.677 292.315 269.632 292.345 269.595C293.027 268.606 293.687 267.632 294.325 266.659C294.467 266.441 294.61 266.224 294.752 266.007C295.375 265.048 295.982 264.097 296.567 263.16C296.582 263.138 296.598 263.108 296.613 263.085C296.613 263.085 296.612 263.07 296.627 263.063C297.175 262.179 297.692 261.303 298.195 260.441C298.33 260.216 298.457 259.984 298.585 259.76C299.012 259.018 299.417 258.291 299.815 257.565C299.875 257.46 299.935 257.355 299.988 257.25C300.003 257.213 300.025 257.183 300.04 257.145C300.467 256.344 300.872 255.557 301.262 254.778C301.36 254.576 301.457 254.381 301.555 254.186C301.847 253.587 302.132 252.988 302.41 252.396C302.47 252.269 302.537 252.134 302.597 251.999C302.642 251.902 302.68 251.812 302.717 251.715C303.01 251.063 303.288 250.419 303.55 249.782C303.588 249.692 303.632 249.595 303.67 249.505C303.962 248.786 304.233 248.074 304.488 247.377C304.51 247.31 304.54 247.243 304.562 247.183C304.607 247.048 304.645 246.92 304.697 246.786C304.877 246.276 305.042 245.774 305.2 245.28C305.267 245.063 305.335 244.853 305.402 244.636C305.567 244.081 305.725 243.535 305.867 242.995C305.89 242.898 305.927 242.801 305.95 242.703C305.95 242.681 305.957 242.658 305.965 242.636C306.13 241.984 306.272 241.347 306.392 240.718C306.422 240.553 306.452 240.389 306.482 240.224C306.565 239.752 306.64 239.287 306.707 238.83C306.722 238.726 306.745 238.621 306.76 238.516C306.767 238.426 306.775 238.351 306.782 238.261C306.842 237.752 306.888 237.242 306.918 236.748C306.918 236.643 306.932 236.538 306.94 236.441C306.97 235.857 306.97 235.28 306.955 234.725C306.955 234.681 306.955 234.628 306.955 234.583C306.955 234.486 306.94 234.388 306.932 234.291C306.91 233.857 306.88 233.422 306.828 233.003C306.813 232.845 306.79 232.688 306.775 232.538C306.7 231.999 306.61 231.467 306.49 230.958C306.482 230.928 306.475 230.89 306.467 230.86C306.452 230.8 306.43 230.748 306.415 230.688C306.287 230.194 306.137 229.714 305.965 229.25C305.905 229.092 305.845 228.935 305.785 228.785C305.62 228.381 305.44 227.991 305.245 227.617C305.2 227.534 305.17 227.444 305.125 227.362C305.102 227.325 305.08 227.295 305.065 227.265C304.825 226.838 304.562 226.418 304.277 226.021L297.062 216.044L297.107 216.021Z" fill="url(#paint11_linear_2003_64)"/>
<g style="mix-blend-mode:screen">
<path d="M299.32 220.965C303.73 244.351 269.778 280.486 254.148 296.509C206.005 344.315 130.375 398.398 64.3901 415.784C51.9701 418.458 28.7726 422.458 24.5276 406.248C28.9151 422.316 52.0301 417.994 64.2476 415.177C128.8 398.031 205.99 342.577 253.548 295.91C269.095 280.074 303.468 243.924 299.32 220.965Z" fill="url(#paint12_linear_2003_64)"/>
</g>
<path d="M189.178 351.174C263.847 297.308 312.294 236.933 297.388 216.321C282.482 195.709 209.867 222.666 135.199 276.532C60.5306 330.397 12.0837 390.772 26.9897 411.384C41.8957 431.996 114.51 405.039 189.178 351.174Z" fill="url(#paint13_linear_2003_64)"/>
<path d="M189.178 351.174C263.847 297.308 312.294 236.933 297.388 216.321C282.482 195.709 209.867 222.666 135.199 276.532C60.5306 330.397 12.0837 390.772 26.9897 411.384C41.8957 431.996 114.51 405.039 189.178 351.174Z" fill="url(#paint14_linear_2003_64)"/>
</g>
<defs>
<radialGradient id="paint0_radial_2003_64" cx="0" cy="0" r="1" gradientUnits="userSpaceOnUse" gradientTransform="translate(509.88 64.8764) scale(2.88002 2.87644)">
<stop stop-color="white" stop-opacity="0"/>
<stop offset="0.28" stop-color="white" stop-opacity="0.34"/>
<stop offset="0.54" stop-color="white" stop-opacity="0.62"/>
<stop offset="0.75" stop-color="white" stop-opacity="0.83"/>
<stop offset="0.91" stop-color="white" stop-opacity="0.95"/>
<stop offset="1" stop-color="white"/>
</radialGradient>
<radialGradient id="paint1_radial_2003_64" cx="0" cy="0" r="1" gradientUnits="userSpaceOnUse" gradientTransform="translate(114.548 526.416) scale(21.9975 21.9703)">
<stop stop-color="white" stop-opacity="0"/>
<stop offset="0.41" stop-color="white" stop-opacity="0.43"/>
<stop offset="0.82" stop-color="white" stop-opacity="0.84"/>
<stop offset="1" stop-color="white"/>
</radialGradient>
<radialGradient id="paint2_radial_2003_64" cx="0" cy="0" r="1" gradientUnits="userSpaceOnUse" gradientTransform="translate(560.89 93.8729) scale(13.89 13.8729)">
<stop stop-color="white" stop-opacity="0"/>
<stop offset="0.41" stop-color="white" stop-opacity="0.43"/>
<stop offset="0.82" stop-color="white" stop-opacity="0.84"/>
<stop offset="1" stop-color="white"/>
</radialGradient>
<linearGradient id="paint3_linear_2003_64" x1="756.95" y1="528.835" x2="62.0904" y2="822.289" gradientUnits="userSpaceOnUse">
<stop stop-color="#DDE5EC"/>
<stop offset="0.57" stop-color="#595959"/>
<stop offset="0.65" stop-color="#545454"/>
<stop offset="0.75" stop-color="#454545"/>
<stop offset="0.86" stop-color="#2D2D2D"/>
<stop offset="0.96" stop-color="#0C0C0C"/>
<stop offset="1"/>
</linearGradient>
<linearGradient id="paint4_linear_2003_64" x1="744.56" y1="513.299" x2="59.0749" y2="802.794" gradientUnits="userSpaceOnUse">
<stop stop-color="#595959"/>
<stop offset="0.08" stop-color="#5D5D5D"/>
<stop offset="0.16" stop-color="#6A6B6C"/>
<stop offset="0.26" stop-color="#7F8284"/>
<stop offset="0.36" stop-color="#9EA2A5"/>
<stop offset="0.47" stop-color="#C4CAD0"/>
<stop offset="0.53" stop-color="#DDE5EC"/>
<stop offset="1" stop-color="#E7ECF6"/>
</linearGradient>
<linearGradient id="paint5_linear_2003_64" x1="662.469" y1="88.8502" x2="190.094" y2="1050.91" gradientUnits="userSpaceOnUse">
<stop offset="0.19" stop-color="white" stop-opacity="0"/>
<stop offset="0.32" stop-color="white" stop-opacity="0.01"/>
<stop offset="0.42" stop-color="white" stop-opacity="0.05"/>
<stop offset="0.52" stop-color="white" stop-opacity="0.12"/>
<stop offset="0.61" stop-color="white" stop-opacity="0.22"/>
<stop offset="0.7" stop-color="white" stop-opacity="0.34"/>
<stop offset="0.79" stop-color="white" stop-opacity="0.49"/>
<stop offset="0.87" stop-color="white" stop-opacity="0.67"/>
<stop offset="0.96" stop-color="white" stop-opacity="0.88"/>
<stop offset="1" stop-color="white"/>
</linearGradient>
<linearGradient id="paint6_linear_2003_64" x1="58.692" y1="842.584" x2="885.609" y2="337.319" gradientUnits="userSpaceOnUse">
<stop stop-color="#7AA3A6" stop-opacity="0.5"/>
<stop offset="0.06" stop-color="#87ACAF" stop-opacity="0.45"/>
<stop offset="0.15" stop-color="#ADC6C8" stop-opacity="0.31"/>
<stop offset="0.26" stop-color="#EAF0F1" stop-opacity="0.08"/>
<stop offset="0.3" stop-color="white" stop-opacity="0"/>
<stop offset="0.37" stop-color="white" stop-opacity="0.02"/>
<stop offset="0.45" stop-color="white" stop-opacity="0.08"/>
<stop offset="0.55" stop-color="white" stop-opacity="0.18"/>
<stop offset="0.65" stop-color="white" stop-opacity="0.31"/>
<stop offset="0.76" stop-color="white" stop-opacity="0.49"/>
<stop offset="0.87" stop-color="white" stop-opacity="0.7"/>
<stop offset="0.98" stop-color="white" stop-opacity="0.95"/>
<stop offset="1" stop-color="white"/>
</linearGradient>
<linearGradient id="paint7_linear_2003_64" x1="331.951" y1="2.8462" x2="619.23" y2="351.402" gradientUnits="userSpaceOnUse">
<stop stop-color="#DDE5EC"/>
<stop offset="0.57" stop-color="#595959"/>
<stop offset="0.63" stop-color="#5D5D5D"/>
<stop offset="0.7" stop-color="#6A6B6C"/>
<stop offset="0.78" stop-color="#808184"/>
<stop offset="0.86" stop-color="#9EA1A5"/>
<stop offset="0.94" stop-color="#C5C8D0"/>
<stop offset="1" stop-color="#E7ECF6"/>
</linearGradient>
<linearGradient id="paint8_linear_2003_64" x1="325.153" y1="12.6252" x2="608.551" y2="356.473" gradientUnits="userSpaceOnUse">
<stop stop-color="#595959"/>
<stop offset="0.08" stop-color="#5D5D5D"/>
<stop offset="0.16" stop-color="#6A6B6C"/>
<stop offset="0.26" stop-color="#7F8284"/>
<stop offset="0.36" stop-color="#9EA2A5"/>
<stop offset="0.47" stop-color="#C4CAD0"/>
<stop offset="0.53" stop-color="#DDE5EC"/>
<stop offset="1" stop-color="#E7ECF6"/>
</linearGradient>
<linearGradient id="paint9_linear_2003_64" x1="95.2999" y1="132.716" x2="729.201" y2="239.141" gradientUnits="userSpaceOnUse">
<stop offset="0.19" stop-color="white" stop-opacity="0"/>
<stop offset="0.32" stop-color="white" stop-opacity="0.01"/>
<stop offset="0.42" stop-color="white" stop-opacity="0.05"/>
<stop offset="0.52" stop-color="white" stop-opacity="0.12"/>
<stop offset="0.61" stop-color="white" stop-opacity="0.22"/>
<stop offset="0.7" stop-color="white" stop-opacity="0.34"/>
<stop offset="0.79" stop-color="white" stop-opacity="0.49"/>
<stop offset="0.87" stop-color="white" stop-opacity="0.67"/>
<stop offset="0.96" stop-color="white" stop-opacity="0.88"/>
<stop offset="1" stop-color="white"/>
</linearGradient>
<linearGradient id="paint10_linear_2003_64" x1="632.193" y1="349.389" x2="200.676" y2="-38.8916" gradientUnits="userSpaceOnUse">
<stop offset="0.28" stop-color="white" stop-opacity="0"/>
<stop offset="0.39" stop-color="white" stop-opacity="0.01"/>
<stop offset="0.48" stop-color="white" stop-opacity="0.05"/>
<stop offset="0.57" stop-color="white" stop-opacity="0.12"/>
<stop offset="0.65" stop-color="white" stop-opacity="0.22"/>
<stop offset="0.73" stop-color="white" stop-opacity="0.34"/>
<stop offset="0.81" stop-color="white" stop-opacity="0.49"/>
<stop offset="0.89" stop-color="white" stop-opacity="0.67"/>
<stop offset="0.96" stop-color="white" stop-opacity="0.88"/>
<stop offset="1" stop-color="white"/>
</linearGradient>
<linearGradient id="paint11_linear_2003_64" x1="61.2328" y1="447.029" x2="286.416" y2="206.095" gradientUnits="userSpaceOnUse">
<stop stop-color="#DDE5EC"/>
<stop offset="0.57" stop-color="#595959"/>
<stop offset="0.63" stop-color="#5D5D5D"/>
<stop offset="0.7" stop-color="#6A6B6C"/>
<stop offset="0.78" stop-color="#808184"/>
<stop offset="0.86" stop-color="#9EA1A5"/>
<stop offset="0.94" stop-color="#C5C8D0"/>
<stop offset="1" stop-color="#E7ECF6"/>
</linearGradient>
<linearGradient id="paint12_linear_2003_64" x1="56.7251" y1="439.594" x2="278.863" y2="201.919" gradientUnits="userSpaceOnUse">
<stop stop-color="#595959"/>
<stop offset="0.08" stop-color="#5D5D5D"/>
<stop offset="0.16" stop-color="#6A6B6C"/>
<stop offset="0.26" stop-color="#7F8284"/>
<stop offset="0.36" stop-color="#9EA2A5"/>
<stop offset="0.47" stop-color="#C4CAD0"/>
<stop offset="0.53" stop-color="#DDE5EC"/>
<stop offset="1" stop-color="#E7ECF6"/>
</linearGradient>
<linearGradient id="paint13_linear_2003_64" x1="-105.326" y1="341.683" x2="361.39" y2="292.982" gradientUnits="userSpaceOnUse">
<stop offset="0.19" stop-color="white" stop-opacity="0"/>
<stop offset="0.32" stop-color="white" stop-opacity="0.01"/>
<stop offset="0.42" stop-color="white" stop-opacity="0.05"/>
<stop offset="0.52" stop-color="white" stop-opacity="0.12"/>
<stop offset="0.61" stop-color="white" stop-opacity="0.22"/>
<stop offset="0.7" stop-color="white" stop-opacity="0.34"/>
<stop offset="0.79" stop-color="white" stop-opacity="0.49"/>
<stop offset="0.87" stop-color="white" stop-opacity="0.67"/>
<stop offset="0.96" stop-color="white" stop-opacity="0.88"/>
<stop offset="1" stop-color="white"/>
</linearGradient>
<linearGradient id="paint14_linear_2003_64" x1="295.725" y1="208.183" x2="-36.3733" y2="471.499" gradientUnits="userSpaceOnUse">
<stop offset="0.28" stop-color="white" stop-opacity="0"/>
<stop offset="0.39" stop-color="white" stop-opacity="0.01"/>
<stop offset="0.48" stop-color="white" stop-opacity="0.05"/>
<stop offset="0.57" stop-color="white" stop-opacity="0.12"/>
<stop offset="0.65" stop-color="white" stop-opacity="0.22"/>
<stop offset="0.73" stop-color="white" stop-opacity="0.34"/>
<stop offset="0.81" stop-color="white" stop-opacity="0.49"/>
<stop offset="0.89" stop-color="white" stop-opacity="0.67"/>
<stop offset="0.96" stop-color="white" stop-opacity="0.88"/>
<stop offset="1" stop-color="white"/>
</linearGradient>
<clipPath id="clip0_2003_64">
<rect width="766.364" height="939.786" fill="white"/>
</clipPath>
</defs>
</svg>
