<svg width="484" height="33" viewBox="0 0 484 33" fill="none" xmlns="http://www.w3.org/2000/svg">
<g clip-path="url(#clip0_3_1256)">
<path d="M10.4907 0H22.8863C28.6807 0 33.377 4.64328 33.377 10.3722V22.6278C33.377 28.3567 28.6807 33 22.8863 33H10.4907C4.69633 33 0 28.3567 0 22.6278V10.3722C0 4.64328 4.69633 0 10.4907 0Z" fill="#EBE733"/>
<path d="M44.41 20.2212V9.75743H51.4347V11.582H46.6524V13.6225H48.3721C49.2056 13.6225 49.9332 13.7598 50.5351 14.0279C51.1436 14.2961 51.6133 14.6688 51.944 15.1593C52.2747 15.6433 52.4401 16.2188 52.4401 16.8793C52.4401 17.5398 52.2747 18.1153 51.944 18.6189C51.6133 19.1159 51.1436 19.5083 50.5351 19.7961C49.9266 20.0773 49.2056 20.2212 48.3721 20.2212H44.4167H44.41ZM46.6458 18.4423H48.3655C48.7624 18.4423 49.1064 18.3704 49.3776 18.2265C49.6554 18.0826 49.8604 17.8864 49.9993 17.651C50.1448 17.409 50.2176 17.1474 50.2176 16.8597C50.2176 16.4411 50.0589 16.0945 49.7348 15.8068C49.4173 15.519 48.9608 15.3752 48.3589 15.3752H46.6391V18.4423H46.6458ZM55.582 17.3502L58.4395 12.3734H60.6091V20.2212H58.5123V15.2313L55.668 20.2212H53.4852V12.3734H55.5886V17.3502H55.582ZM61.6013 17.9976H63.7378C63.751 18.2592 63.8634 18.462 64.0883 18.6124C64.3132 18.7628 64.6043 18.8347 64.9548 18.8347C65.3054 18.8347 65.6163 18.7562 65.861 18.5862C66.1058 18.4162 66.2248 18.1807 66.2248 17.8734C66.2248 17.6837 66.1785 17.5202 66.0793 17.3763C65.9801 17.2325 65.8478 17.1213 65.6758 17.0363C65.5038 16.9578 65.3054 16.912 65.0739 16.912H63.9296V15.4863H65.0739C65.4179 15.4863 65.6758 15.4078 65.861 15.2509C66.0462 15.0939 66.1388 14.8977 66.1388 14.6623C66.1388 14.3942 66.0396 14.1849 65.8478 14.0214C65.656 13.8579 65.4046 13.7729 65.0805 13.7729C64.7564 13.7729 64.4786 13.8448 64.2669 13.9952C64.0553 14.1391 63.9428 14.3288 63.9362 14.5577H61.8129C61.8195 14.0868 61.9651 13.6813 62.2429 13.3347C62.5273 12.9881 62.9043 12.7265 63.3806 12.5369C63.8568 12.3472 64.3926 12.2556 64.9879 12.2556C65.6361 12.2556 66.1918 12.3472 66.6614 12.5238C67.131 12.7004 67.4948 12.9554 67.7462 13.2824C67.9975 13.6094 68.1298 14.0083 68.1298 14.4596C68.1298 14.8716 67.9909 15.2247 67.7197 15.4994C67.4419 15.7806 67.0583 15.9768 66.5622 16.0945V16.173C66.8863 16.1926 67.1839 16.2776 67.4485 16.4346C67.7131 16.585 67.9248 16.8008 68.0835 17.069C68.2423 17.3371 68.3216 17.651 68.3216 18.0172C68.3216 18.5012 68.1761 18.9197 67.8851 19.2664C67.6007 19.613 67.2038 19.8811 66.6945 20.0708C66.1918 20.2539 65.6163 20.3454 64.9614 20.3454C64.3066 20.3454 63.7576 20.2539 63.2549 20.0773C62.7522 19.8942 62.3553 19.626 62.0577 19.2729C61.7666 18.9197 61.6079 18.4881 61.5946 17.978M74.8237 17.1213H70.683V15.4078H74.8237V17.1213ZM71.404 20.2015H69.3006V12.3537H71.404V20.2015ZM76.2062 20.2015H74.116V12.3537H76.2062V20.2015ZM81.1671 20.352C80.3535 20.352 79.6458 20.1885 79.0571 19.8615C78.4684 19.5345 78.0186 19.0636 77.7011 18.462C77.3836 17.8537 77.2248 17.1409 77.2248 16.3103C77.2248 15.4798 77.3836 14.7931 77.7011 14.1849C78.0186 13.5767 78.4617 13.0993 79.0372 12.7592C79.6193 12.4191 80.294 12.2491 81.0745 12.2491C81.597 12.2491 82.0865 12.3341 82.5363 12.4976C82.9927 12.6611 83.3896 12.9096 83.7269 13.2366C84.0643 13.5702 84.3355 13.9822 84.5207 14.4857C84.7125 14.9828 84.8051 15.5648 84.8051 16.2319V16.827H78.1046V15.4798H82.7348C82.7348 15.1659 82.6686 14.8912 82.5297 14.6492C82.3908 14.4073 82.199 14.2176 81.9542 14.0803C81.7161 13.9429 81.4317 13.871 81.1142 13.871C80.7967 13.871 80.4858 13.9495 80.2278 14.0999C79.9699 14.2503 79.7714 14.453 79.6259 14.7081C79.4804 14.9631 79.4076 15.2444 79.401 15.5517V16.8335C79.401 17.2194 79.4738 17.5595 79.6193 17.8407C79.7648 18.1219 79.9765 18.3442 80.2477 18.4947C80.5189 18.6516 80.8364 18.7235 81.2002 18.7235C81.4449 18.7235 81.6698 18.6908 81.8682 18.6189C82.0733 18.5535 82.2453 18.4489 82.3908 18.3115C82.5363 18.1742 82.6488 18.0107 82.7215 17.808L84.7588 17.9388C84.653 18.4227 84.4413 18.8478 84.1238 19.2075C83.8063 19.5672 83.3962 19.8419 82.8935 20.0446C82.3908 20.2408 81.8153 20.3389 81.1605 20.3389M89.4618 20.3389C88.6482 20.3389 87.947 20.1688 87.3649 19.8288C86.7829 19.4822 86.3331 19.0048 86.0222 18.3966C85.7113 17.7883 85.5592 17.082 85.5592 16.2907C85.5592 15.4994 85.7179 14.78 86.0288 14.1784C86.3463 13.5702 86.7961 13.0927 87.3782 12.7527C87.9603 12.4061 88.6548 12.236 89.4551 12.236C90.1497 12.236 90.7516 12.3603 91.2741 12.6088C91.7967 12.8573 92.2068 13.2039 92.5111 13.6552C92.8153 14.1064 92.9807 14.6296 93.0138 15.2378H90.9368C90.8773 14.8454 90.7251 14.5315 90.4738 14.2895C90.2224 14.0476 89.8983 13.9298 89.4948 13.9298C89.1509 13.9298 88.8532 14.0214 88.6019 14.2045C88.3505 14.3876 88.1521 14.6492 88.0132 14.9958C87.8743 15.3425 87.8015 15.7675 87.8015 16.258C87.8015 16.7485 87.8676 17.1867 88.0065 17.5333C88.1455 17.8864 88.3439 18.1546 88.6019 18.3377C88.8598 18.5208 89.1575 18.6124 89.4948 18.6124C89.7462 18.6124 89.9711 18.56 90.1695 18.462C90.3746 18.3573 90.5399 18.2134 90.6722 18.0172C90.8045 17.821 90.8971 17.5856 90.9368 17.3044H93.0138C92.9807 17.9061 92.8153 18.4293 92.5177 18.887C92.2266 19.3383 91.8231 19.698 91.3072 19.9465C90.7913 20.2015 90.1761 20.3323 89.475 20.3323M95.3487 20.3127C95.0047 20.3127 94.7137 20.195 94.469 19.953C94.2308 19.7111 94.1052 19.4233 94.1052 19.0832C94.1052 18.7432 94.2242 18.462 94.469 18.2265C94.7137 17.9911 95.0047 17.8668 95.3487 17.8668C95.6927 17.8668 95.9705 17.9845 96.2152 18.2265C96.4666 18.462 96.5856 18.7497 96.5856 19.0832C96.5856 19.3056 96.5261 19.5149 96.407 19.698C96.2946 19.8811 96.1425 20.0315 95.9572 20.1427C95.772 20.2539 95.567 20.3062 95.3421 20.3062M107.063 9.71165V20.1754H104.854V11.5101H100.574V20.1754H98.3649V9.71165H107.063ZM112.375 20.3258C111.574 20.3258 110.88 20.1558 110.291 19.8222C109.709 19.4822 109.259 19.0113 108.942 18.4031C108.624 17.7949 108.465 17.0886 108.465 16.2842C108.465 15.4798 108.624 14.7669 108.942 14.1587C109.259 13.5505 109.709 13.0731 110.291 12.7396C110.88 12.3995 111.574 12.2295 112.375 12.2295C113.175 12.2295 113.869 12.3995 114.452 12.7396C115.04 13.0797 115.49 13.5505 115.808 14.1587C116.125 14.7669 116.284 15.4732 116.284 16.2842C116.284 17.0951 116.125 17.7949 115.808 18.4031C115.49 19.0113 115.04 19.4822 114.452 19.8222C113.869 20.1558 113.175 20.3258 112.375 20.3258ZM112.388 18.6385C112.752 18.6385 113.056 18.5339 113.301 18.3312C113.545 18.1219 113.731 17.8407 113.856 17.481C113.982 17.1213 114.048 16.7158 114.048 16.258C114.048 15.8002 113.982 15.3948 113.856 15.0351C113.731 14.6754 113.545 14.3942 113.301 14.1849C113.056 13.9756 112.752 13.871 112.388 13.871C112.024 13.871 111.706 13.9756 111.455 14.1849C111.21 14.3942 111.019 14.6754 110.893 15.0351C110.767 15.3948 110.708 15.8002 110.708 16.258C110.708 16.7158 110.767 17.1213 110.893 17.481C111.019 17.8407 111.21 18.1219 111.455 18.3312C111.706 18.5339 112.017 18.6385 112.388 18.6385ZM117.349 20.1688V12.321H119.551V15.3621H120.173L122.329 12.321H124.916L122.111 16.2122L124.949 20.1688H122.336L120.378 17.3829H119.558V20.1688H117.355H117.349ZM128.765 20.3193C127.965 20.3193 127.271 20.1492 126.682 19.8157C126.1 19.4756 125.65 19.0048 125.332 18.3966C125.015 17.7883 124.856 17.082 124.856 16.2776C124.856 15.4732 125.015 14.7604 125.332 14.1522C125.65 13.544 126.1 13.0666 126.682 12.7331C127.264 12.393 127.958 12.223 128.765 12.223C129.572 12.223 130.26 12.393 130.842 12.7331C131.431 13.0731 131.881 13.544 132.198 14.1522C132.516 14.7604 132.675 15.4667 132.675 16.2776C132.675 17.0886 132.516 17.7883 132.198 18.3966C131.881 19.0048 131.431 19.4756 130.842 19.8157C130.26 20.1492 129.566 20.3193 128.765 20.3193ZM128.779 18.632C129.142 18.632 129.447 18.5274 129.691 18.3246C129.936 18.1153 130.121 17.8341 130.247 17.4744C130.373 17.1147 130.439 16.7093 130.439 16.2515C130.439 15.7937 130.373 15.3882 130.247 15.0285C130.121 14.6688 129.936 14.3876 129.691 14.1784C129.447 13.9691 129.142 13.8644 128.779 13.8644C128.415 13.8644 128.097 13.9691 127.846 14.1784C127.595 14.3876 127.409 14.6688 127.284 15.0285C127.158 15.3882 127.099 15.7937 127.099 16.2515C127.099 16.7093 127.158 17.1147 127.284 17.4744C127.409 17.8341 127.601 18.1153 127.846 18.3246C128.097 18.5274 128.408 18.632 128.779 18.632ZM133.277 20.1623L133.263 18.4358H133.528C133.713 18.4358 133.872 18.39 134.011 18.305C134.15 18.2134 134.262 18.063 134.355 17.8603C134.447 17.6576 134.513 17.3829 134.566 17.0493C134.619 16.7093 134.652 16.2907 134.672 15.7937L134.805 12.321H140.837V20.1688H138.74V14.0345H136.782L136.657 16.4281C136.624 17.0886 136.544 17.651 136.412 18.1219C136.286 18.5927 136.108 18.9851 135.876 19.286C135.651 19.5868 135.373 19.8092 135.056 19.953C134.738 20.0969 134.361 20.1688 133.938 20.1688H133.277V20.1623ZM145.791 20.3127C144.978 20.3127 144.27 20.1492 143.681 19.8222C143.093 19.4952 142.643 19.0244 142.325 18.4227C142.008 17.8145 141.849 17.1017 141.849 16.2711C141.849 15.4405 142.008 14.7539 142.325 14.1457C142.643 13.5375 143.086 13.06 143.661 12.72C144.243 12.3799 144.918 12.2099 145.699 12.2099C146.221 12.2099 146.711 12.2949 147.16 12.4584C147.617 12.6219 148.014 12.8704 148.351 13.1974C148.695 13.5309 148.96 13.9429 149.145 14.4465C149.337 14.9435 149.429 15.5256 149.429 16.1926V16.7878H142.729V15.4405H147.359C147.359 15.1266 147.293 14.852 147.154 14.61C147.015 14.368 146.823 14.1784 146.578 14.041C146.34 13.9037 146.056 13.8317 145.738 13.8317C145.421 13.8317 145.11 13.9102 144.852 14.0606C144.601 14.2111 144.396 14.4138 144.257 14.6688C144.111 14.9239 144.038 15.2051 144.032 15.5125V16.7943C144.032 17.1801 144.105 17.5202 144.25 17.8014C144.396 18.0826 144.607 18.305 144.878 18.4554C145.15 18.6124 145.467 18.6843 145.838 18.6843C146.082 18.6843 146.307 18.6516 146.506 18.5797C146.711 18.5143 146.883 18.4096 147.028 18.2723C147.174 18.135 147.286 17.9715 147.359 17.7687L149.396 17.8995C149.29 18.3835 149.079 18.8086 148.761 19.1683C148.444 19.5279 148.034 19.8026 147.531 20.0054C147.035 20.2015 146.453 20.2996 145.798 20.2996M156.037 17.069H151.89V15.3555H156.037V17.069ZM152.617 20.1492H150.514V12.3014H152.617V20.1492ZM157.42 20.1492H155.336V12.3014H157.42V20.1492ZM160.866 17.2782L163.723 12.3014H165.893V20.1492H163.796V15.1593L160.952 20.1492H158.769V12.3014H160.872V17.2782H160.866ZM170.913 20.2996C170.1 20.2996 169.392 20.1361 168.803 19.8092C168.215 19.4822 167.765 19.0113 167.447 18.4096C167.13 17.8014 166.971 17.0886 166.971 16.258C166.971 15.4275 167.13 14.7408 167.447 14.1326C167.765 13.5244 168.208 13.047 168.783 12.7069C169.366 12.3668 170.04 12.1968 170.821 12.1968C171.343 12.1968 171.833 12.2818 172.283 12.4453C172.739 12.6088 173.136 12.8573 173.473 13.1843C173.811 13.5178 174.082 13.9298 174.267 14.4334C174.459 14.9304 174.551 15.5125 174.551 16.1795V16.7747H167.851V15.4275H172.481C172.481 15.1136 172.415 14.8389 172.276 14.5969C172.137 14.3549 171.945 14.1653 171.7 14.0279C171.462 13.8906 171.178 13.8187 170.86 13.8187C170.543 13.8187 170.232 13.8971 169.974 14.0476C169.723 14.198 169.518 14.4007 169.379 14.6558C169.233 14.9108 169.16 15.192 169.16 15.4994V16.7812C169.16 17.1671 169.233 17.5071 169.379 17.7883C169.524 18.0696 169.736 18.2919 170.007 18.4423C170.278 18.5993 170.596 18.6712 170.966 18.6712C171.211 18.6712 171.436 18.6385 171.634 18.5666C171.839 18.5012 172.011 18.3966 172.157 18.2592C172.302 18.1219 172.415 17.9584 172.488 17.7556L174.525 17.8864C174.419 18.3704 174.207 18.7955 173.89 19.1552C173.572 19.5149 173.162 19.7895 172.66 19.9923C172.163 20.1885 171.581 20.2866 170.927 20.2866" fill="white"/>
<path d="M24.6325 20.1885C24.6325 22.2747 22.9128 24.8906 20.6572 24.8775H11.5423C11.3439 24.8775 11.1587 24.799 11.0198 24.6486C10.8809 24.5047 10.8015 24.3086 10.8015 24.1058V19.4102C10.8015 19.1748 10.7089 18.9459 10.5502 18.7759C10.3914 18.6058 10.1731 18.5143 9.94823 18.5143H9.70349C9.24048 18.5143 8.7973 18.3246 8.47319 17.978C8.14907 17.6379 7.96387 17.1736 7.96387 16.6896C7.96387 16.4477 8.01017 16.2122 8.09616 15.9899C8.18215 15.7675 8.31444 15.5648 8.47319 15.4013C8.63194 15.2313 8.82376 15.1005 9.03542 15.0089C9.24709 14.9174 9.47199 14.8716 9.70349 14.8716H9.94823C10.1731 14.8716 10.3914 14.7735 10.5502 14.61C10.7089 14.4399 10.8015 14.2111 10.8015 13.9756V8.86147C10.8015 8.43638 10.8214 8.08977 11.2513 8.08977H22.1124C22.6019 8.08977 22.6812 8.44292 22.6812 8.86147V11.4316C22.6812 11.5297 22.6614 11.6344 22.6283 11.7259C22.5953 11.8175 22.5357 11.9025 22.4696 11.9744C22.4034 12.0464 22.3174 12.1052 22.2315 12.1445C22.1455 12.1837 22.0462 12.2033 21.947 12.2033H21.5898C21.5303 12.1968 21.4642 12.1902 21.4046 12.1902H19.2814C19.1623 12.1902 19.0565 12.1445 18.9705 12.0594C18.8911 11.9744 18.8448 11.8567 18.8448 11.739V11.242C18.8448 10.8169 18.6927 10.4114 18.4149 10.104C18.137 9.79666 17.7468 9.62009 17.3433 9.60701C17.1449 9.60701 16.9464 9.64625 16.7612 9.72473C16.576 9.8032 16.4107 9.92092 16.2651 10.0648C16.1262 10.2152 16.0138 10.3852 15.9344 10.5814C15.855 10.7776 15.8153 10.9804 15.8153 11.1896V11.739C15.8153 11.7979 15.8021 11.8567 15.7823 11.9156C15.7624 11.9679 15.7294 12.0202 15.6897 12.066C15.65 12.1118 15.6037 12.1445 15.5508 12.1641C15.4978 12.1902 15.4383 12.1968 15.3854 12.1968H14.9158C14.7306 12.1968 14.5453 12.236 14.3734 12.308C14.2014 12.3799 14.0426 12.4911 13.9103 12.6284C13.7781 12.7657 13.6722 12.9292 13.5995 13.1124C13.5267 13.2955 13.487 13.4851 13.487 13.6813V13.9168C13.487 14.3091 13.6392 14.6885 13.9037 14.9697C14.1683 15.2509 14.5321 15.4013 14.9091 15.4013H15.392C15.5045 15.4013 15.6103 15.4471 15.6897 15.5321C15.769 15.6171 15.8153 15.7283 15.8153 15.846V17.4613C15.8153 17.5791 15.769 17.6902 15.6897 17.7753C15.6103 17.8603 15.5045 17.9061 15.392 17.9061H15.2266C14.7769 17.9061 14.3469 18.0826 14.0228 18.4096C13.6987 18.7366 13.5135 19.1813 13.5002 19.6522C13.5002 19.8811 13.5399 20.1165 13.6259 20.3323C13.7119 20.5482 13.831 20.7443 13.9897 20.9078C14.1485 21.0713 14.3337 21.2021 14.5321 21.2937C14.7306 21.3852 14.9554 21.431 15.1737 21.431H15.3788C15.4383 21.431 15.4912 21.4441 15.5441 21.4637C15.5971 21.4899 15.6434 21.5226 15.683 21.5618C15.7227 21.6076 15.7558 21.6534 15.7757 21.7122C15.7955 21.7646 15.8087 21.83 15.8087 21.8888V22.1896C15.8087 22.6147 15.9609 23.0202 16.2387 23.3276C16.5231 23.6349 16.9067 23.8115 17.3102 23.8181C17.5087 23.8181 17.7071 23.7788 17.8923 23.7004C18.0775 23.6219 18.2429 23.5042 18.3884 23.3603C18.5273 23.2164 18.6398 23.0398 18.7191 22.8436C18.7919 22.654 18.8316 22.4447 18.8316 22.2354V21.8823C18.8316 21.7646 18.8779 21.6468 18.9573 21.5618C19.0366 21.4768 19.1491 21.431 19.2681 21.431H19.8105C20.2603 21.431 20.6903 21.2479 21.0144 20.9209C21.3385 20.5939 21.5237 20.1492 21.5369 19.6718C21.5369 19.2075 21.3583 18.7562 21.0408 18.4227C20.7233 18.0892 20.2934 17.9061 19.8502 17.9061H19.2549C19.1425 17.9061 19.0366 17.8603 18.9573 17.7753C18.8779 17.6902 18.8316 17.5791 18.8316 17.4613V15.676C18.8316 15.5583 18.8779 15.4471 18.9573 15.3621C19.0366 15.277 19.1425 15.2313 19.2549 15.2313H19.923C20.9482 15.2836 22.496 15.5844 23.3559 16.4019C24.3018 17.2979 24.6127 18.7039 24.6127 20.195" fill="black"/>
<path d="M210.74 18.9001V12.1248H216.329V18.9001H215.019V13.2628H212.036V18.9001H210.74ZM217.863 21.4441V12.1314H219.167V13.2301H219.279C219.358 13.0862 219.471 12.9292 219.616 12.7396C219.762 12.5565 219.967 12.393 220.225 12.2556C220.483 12.1183 220.827 12.0464 221.25 12.0464C221.806 12.0464 222.295 12.1837 222.732 12.4584C223.168 12.7331 223.506 13.132 223.75 13.6552C224.002 14.1784 224.127 14.7996 224.127 15.5321C224.127 16.2646 224.002 16.8924 223.757 17.4156C223.512 17.9388 223.175 18.3377 222.738 18.6189C222.308 18.9001 221.812 19.0375 221.263 19.0375C220.847 19.0375 220.509 18.9655 220.245 18.8282C219.987 18.6908 219.775 18.5273 219.63 18.3442C219.477 18.1611 219.365 17.9911 219.286 17.8472H219.206V21.4441H217.87H217.863ZM219.173 15.5125C219.173 15.9899 219.246 16.4084 219.385 16.7616C219.524 17.1213 219.729 17.4025 219.993 17.6052C220.258 17.808 220.582 17.9061 220.966 17.9061C221.349 17.9061 221.7 17.8014 221.965 17.5921C222.229 17.3829 222.434 17.0951 222.573 16.7289C222.712 16.3692 222.785 15.9637 222.785 15.5059C222.785 15.0482 222.719 14.6558 222.58 14.3026C222.447 13.9495 222.242 13.6682 221.971 13.459C221.707 13.2497 221.369 13.1516 220.966 13.1516C220.562 13.1516 220.251 13.2497 219.98 13.4459C219.716 13.6421 219.517 13.9168 219.378 14.2699C219.239 14.6231 219.173 15.0351 219.173 15.5059M228.255 19.0309C227.613 19.0309 227.051 18.887 226.575 18.5927C226.099 18.2985 225.722 17.893 225.457 17.3698C225.192 16.8466 225.06 16.2319 225.06 15.5321C225.06 14.8323 225.192 14.2176 225.457 13.6879C225.722 13.1647 226.092 12.7527 226.575 12.4584C227.051 12.1641 227.613 12.0202 228.255 12.0202C228.897 12.0202 229.459 12.1641 229.935 12.4584C230.411 12.7527 230.788 13.1581 231.053 13.6879C231.317 14.2111 231.45 14.8258 231.45 15.5321C231.45 16.2384 231.317 16.8466 231.053 17.3698C230.788 17.893 230.418 18.2985 229.935 18.5927C229.459 18.887 228.897 19.0309 228.255 19.0309ZM228.255 17.9257C228.672 17.9257 229.016 17.8145 229.293 17.5987C229.565 17.3829 229.77 17.0886 229.902 16.7289C230.034 16.3692 230.1 15.9703 230.1 15.5321C230.1 15.0939 230.034 14.7015 229.902 14.3419C229.77 13.9756 229.571 13.6813 229.293 13.4655C229.022 13.2432 228.672 13.132 228.255 13.132C227.838 13.132 227.488 13.2432 227.21 13.4655C226.939 13.6879 226.734 13.9822 226.601 14.3419C226.469 14.7015 226.403 15.1005 226.403 15.5321C226.403 15.9637 226.469 16.3692 226.601 16.7289C226.734 17.0886 226.939 17.3829 227.21 17.5987C227.488 17.8145 227.832 17.9257 228.255 17.9257ZM235.637 19.0309C234.962 19.0309 234.38 18.887 233.891 18.6058C233.408 18.3181 233.031 17.9126 232.766 17.396C232.501 16.8728 232.376 16.258 232.376 15.5583C232.376 14.8585 232.508 14.2503 232.766 13.7206C233.031 13.1908 233.401 12.7788 233.871 12.4845C234.347 12.1902 234.903 12.0398 235.538 12.0398C235.928 12.0398 236.298 12.1052 236.662 12.2295C237.026 12.3537 237.35 12.5565 237.641 12.8246C237.932 13.0927 238.157 13.4459 238.322 13.8775C238.488 14.3092 238.574 14.8323 238.574 15.4471V15.9114H233.13V14.9239H237.271C237.271 14.5773 237.198 14.2699 237.059 14.0018C236.913 13.7336 236.715 13.5178 236.457 13.3609C236.199 13.2039 235.901 13.1254 235.557 13.1254C235.18 13.1254 234.856 13.217 234.572 13.4001C234.294 13.5767 234.082 13.8121 233.93 14.1064C233.778 14.3942 233.705 14.7081 233.705 15.0482V15.8199C233.705 16.2711 233.785 16.657 233.943 16.9774C234.109 17.2913 234.334 17.5398 234.625 17.7033C234.916 17.8668 235.253 17.9518 235.643 17.9518C235.895 17.9518 236.126 17.9191 236.338 17.8472C236.543 17.7753 236.728 17.6641 236.88 17.5202C237.032 17.3763 237.152 17.1998 237.231 16.9839L238.494 17.2063C238.395 17.5725 238.21 17.893 237.952 18.1742C237.694 18.4489 237.37 18.6581 236.973 18.8151C236.583 18.9655 236.139 19.0375 235.637 19.0375M239.804 18.9001V12.1248H241.14V14.9631H241.782L244.044 12.1248H245.691L243.038 15.4209L245.724 18.9001H244.07L242.007 16.1926H241.14V18.9001H239.804ZM246.127 13.2628V12.1248H251.909V13.2628H249.673V18.9001H248.37V13.2628H246.127ZM259.032 19.0375C258.391 19.0375 257.829 18.8936 257.352 18.5993C256.876 18.305 256.499 17.8995 256.235 17.3763C255.97 16.8531 255.838 16.2384 255.838 15.5386C255.838 14.8389 255.97 14.2241 256.235 13.6944C256.499 13.1712 256.87 12.7592 257.352 12.4649C257.829 12.1706 258.391 12.0268 259.032 12.0268C259.674 12.0268 260.236 12.1706 260.713 12.4649C261.189 12.7592 261.566 13.1647 261.83 13.6944C262.095 14.2176 262.227 14.8323 262.227 15.5386C262.227 16.2449 262.095 16.8531 261.83 17.3763C261.566 17.8995 261.195 18.305 260.713 18.5993C260.236 18.8936 259.674 19.0375 259.032 19.0375ZM259.032 17.9322C259.449 17.9322 259.793 17.821 260.071 17.6052C260.342 17.3894 260.547 17.0951 260.679 16.7354C260.812 16.3757 260.878 15.9768 260.878 15.5386C260.878 15.1005 260.812 14.7081 260.679 14.3484C260.547 13.9822 260.349 13.6879 260.071 13.4721C259.8 13.2497 259.449 13.1385 259.032 13.1385C258.616 13.1385 258.265 13.2497 257.987 13.4721C257.716 13.6944 257.511 13.9887 257.379 14.3484C257.247 14.7081 257.18 15.107 257.18 15.5386C257.18 15.9703 257.247 16.3757 257.379 16.7354C257.511 17.0951 257.716 17.3894 257.987 17.6052C258.265 17.821 258.616 17.9322 259.032 17.9322ZM262.637 13.2628V12.1248H268.419V13.2628H266.183V18.9001H264.88V13.2628H262.637Z" fill="white"/>
<path fill-rule="evenodd" clip-rule="evenodd" d="M324.225 14.937C312.789 25.1587 312.035 25.8127 311.843 25.7408C311.731 25.695 306.373 22.3662 299.943 18.3377C293.514 14.3092 288.236 11.0196 288.216 11.0196C288.196 11.0196 288.176 15.5844 288.176 21.1694V31.3193H293.183V25.7866C293.183 20.4828 293.183 20.2604 293.329 20.2931C293.408 20.3127 297.708 22.981 302.88 26.2182C308.053 29.4554 312.339 32.1237 312.418 32.1433C312.511 32.1694 315.6 29.4619 321.851 23.8704C326.964 19.299 331.217 15.5452 331.303 15.5321C331.455 15.5059 331.462 15.6498 331.462 23.4126V31.3193H336.469V17.6902C336.469 10.1956 336.456 4.06123 336.443 4.06123C336.429 4.06123 330.933 8.95957 324.232 14.9435" fill="#FCC928"/>
<path fill-rule="evenodd" clip-rule="evenodd" d="M449.393 2.26278V3.34185H451.331V1.19025H449.393V2.26278ZM453.745 2.26278V3.34185H455.763L455.743 2.28894L455.723 1.23603L454.737 1.20987L453.752 1.18371V2.26278H453.745ZM352.099 4.93757C350.704 5.25802 349.473 6.28478 348.832 7.67122C348.157 9.12961 348.15 9.195 348.15 16.0161V21.9346H349.116H350.082V18.0172C350.082 15.8656 350.102 14.0999 350.128 14.0999C350.155 14.0999 350.346 14.2568 350.551 14.453C351.034 14.9108 351.709 15.2705 352.397 15.4471C353.124 15.6302 354.527 15.5648 355.182 15.3163C357.278 14.525 358.582 12.72 358.687 10.4637C358.74 9.3912 358.621 8.73722 358.204 7.8151C357.569 6.39596 356.194 5.26456 354.712 4.93103C354.011 4.77408 352.787 4.77408 352.093 4.93103M364.588 4.93103C363.165 5.25802 361.697 6.47443 361.088 7.82818C360.387 9.38466 360.387 10.9738 361.088 12.5303C361.512 13.4786 362.438 14.453 363.377 14.9435C365.58 16.1011 368.245 15.604 369.853 13.7467C370.739 12.72 371.156 11.5886 371.156 10.176C371.156 7.59928 369.509 5.48692 367.048 4.91141C366.426 4.76754 365.256 4.77408 364.588 4.92449M377.043 4.91795C374.602 5.49346 373.054 7.52081 373.054 10.1433C373.054 11.739 373.451 12.7854 374.463 13.8775C374.986 14.44 375.244 14.6427 375.799 14.9239C377.42 15.7545 379.397 15.7545 380.959 14.9239C381.726 14.5184 382.625 13.5375 383.002 12.7069C383.161 12.3537 383.32 11.9548 383.346 11.824L383.399 11.5886H381.468L381.256 12.0529C380.992 12.6219 380.456 13.1712 379.861 13.459C379.305 13.7336 378.127 13.8252 377.526 13.6552C376.639 13.4001 375.839 12.7461 375.475 11.9875C374.747 10.4637 375.065 8.46254 376.216 7.39655C376.851 6.80797 377.612 6.55945 378.61 6.61177C379.192 6.64447 379.417 6.69679 379.854 6.9126C380.456 7.21343 380.925 7.6843 381.216 8.26635L381.408 8.65874H383.379L383.194 8.10939C382.983 7.48157 382.678 6.91914 382.354 6.54637C381.666 5.76159 380.628 5.14031 379.589 4.91141C378.895 4.75446 377.711 4.75446 377.049 4.91141M404.017 4.92449C403.104 5.14031 402.218 5.66349 401.517 6.40904C400.822 7.14804 400.544 7.60583 400.247 8.50832C400.068 9.04459 400.041 9.27348 400.041 10.1629C400.041 11.0523 400.068 11.2812 400.247 11.8175C400.544 12.72 400.822 13.1778 401.51 13.9168C402.509 14.9893 403.818 15.5452 405.333 15.5386C406.828 15.5386 408.105 14.9828 409.103 13.9168C409.791 13.1778 410.069 12.72 410.367 11.8175C410.545 11.2812 410.572 11.0523 410.572 10.1629C410.572 9.27348 410.545 9.04459 410.367 8.50832C410.069 7.60583 409.791 7.14804 409.103 6.40904C408.085 5.32342 406.782 4.77408 405.241 4.7937C404.857 4.7937 404.308 4.85909 404.023 4.92449M427.353 4.95719C426.572 5.17955 426.076 5.42152 425.494 5.86623C424.165 6.8799 423.431 8.41022 423.431 10.1694C423.431 11.9287 424.218 13.5571 425.653 14.5773C427.207 15.6891 429.39 15.8591 431.064 15.0024C432.102 14.4727 432.889 13.6944 433.385 12.7069C433.868 11.7455 433.968 11.3204 433.968 10.1694C433.968 9.01843 433.868 8.5868 433.385 7.63198C432.711 6.29786 431.375 5.24495 429.933 4.91795C429.165 4.74138 428.048 4.761 427.353 4.95719ZM451.337 4.92449C449.651 5.31034 448.195 6.70333 447.653 8.44946C447.468 9.04459 447.441 9.28002 447.441 10.1694C447.441 11.0589 447.468 11.3008 447.653 11.8894C448.328 14.0606 450.081 15.4013 452.396 15.5256C454.565 15.6433 456.424 14.7015 457.244 13.0666C457.654 12.2426 457.687 12.2818 456.596 12.2818H455.637L455.399 12.6153C454.909 13.3151 454.162 13.6617 453.011 13.7206C452.144 13.7663 451.589 13.6617 450.974 13.3347C450.206 12.9227 449.512 11.9417 449.36 11.0523L449.307 10.7319H457.8L457.753 9.89477C457.694 8.91379 457.548 8.33829 457.152 7.50773C456.563 6.27824 455.299 5.27764 453.91 4.93103C453.269 4.76754 452.039 4.76754 451.331 4.93103M385.556 10.176V15.3817H387.408L387.428 11.1439L387.447 6.90606L389.055 10.503L390.662 14.0933H391.714H392.765L394.34 10.5684C395.206 8.62604 395.94 7.0434 395.974 7.0434C396.007 7.0434 396.033 8.92033 396.033 11.2158V15.3882H397.885V4.97681H394.928L393.328 8.5541C392.448 10.5226 391.707 12.0987 391.674 12.0595C391.641 12.0202 390.913 10.4114 390.06 8.48216L388.499 4.97681H385.549V10.1825L385.556 10.176ZM416.267 5.12723C415.083 5.4673 414.402 6.27824 414.018 7.82164C413.932 8.16825 413.747 9.09691 413.615 9.89477C413.317 11.6147 413.138 12.2753 412.841 12.6807C412.609 13.0012 412.093 13.3086 411.776 13.3151C411.591 13.3151 411.59 13.3216 411.617 14.3746L411.637 15.4275L412.133 15.4078C413.224 15.3621 414.111 14.7277 414.62 13.6356C414.944 12.9358 415.195 11.9025 415.506 9.9667C415.844 7.90666 416.022 7.44233 416.591 7.08264C416.836 6.93222 417.041 6.89952 418.099 6.87336L419.33 6.84066V15.3817H421.182V4.97681H418.986C417.147 4.98335 416.704 5.00951 416.267 5.14031M439.742 5.11415C439.167 5.27764 438.664 5.60464 438.307 6.0428C437.784 6.68371 437.493 7.48811 436.951 9.81629C436.428 12.066 436.203 12.7461 435.826 13.2235C435.615 13.4917 435.582 13.5048 435.006 13.5048H434.411V17.893H436.263V15.3948H444.081V17.893H445.933V13.5113L445.225 13.4851L444.518 13.459L444.498 9.22116L444.478 4.98335H442.322C440.721 4.99643 440.06 5.02913 439.735 5.12069M459.176 5.10761C459.202 5.17301 459.824 6.27824 460.551 7.55351C461.286 8.82877 461.888 9.90785 461.888 9.95362C461.888 9.9994 461.233 11.1897 460.426 12.6023C459.619 14.0149 458.951 15.2247 458.924 15.2836C458.891 15.3751 459.096 15.3948 459.936 15.3948H460.988L462.218 13.1974L463.449 11H465.102L465.122 13.1712L465.142 15.3424L466.048 15.3686L466.954 15.3948V11H468.628L469.858 13.1974L471.088 15.3948H473.265L473.146 15.1986C472.835 14.6885 470.182 9.98632 470.182 9.94708C470.182 9.92093 470.817 8.80261 471.585 7.46195L472.987 5.02259L472.008 4.99643C471.472 4.98335 470.989 4.98989 470.943 5.00951C470.89 5.02913 470.348 5.95779 469.726 7.0761L468.601 9.10345H467.775H466.948V4.96373L466.042 4.98989L465.135 5.01605L465.115 7.06302L465.096 9.10999L464.275 9.08383L463.455 9.05767L462.324 7.01724L461.193 4.97681H460.155C459.288 4.97681 459.129 4.98989 459.162 5.09453M474.614 8.05053C474.614 10.4245 474.64 11.2681 474.733 11.7325C475.209 14.1653 477.174 15.6891 479.641 15.5386C481.764 15.4078 483.213 14.2568 483.841 12.2099C484.033 11.569 484.04 10.261 483.841 9.62009C483.279 7.76278 482.035 6.67717 480.203 6.42211C478.993 6.25208 477.802 6.67063 476.962 7.56005L476.545 7.99821V4.97681H474.614V8.05707V8.05053ZM453.17 6.61177C453.824 6.72295 454.426 7.0107 454.843 7.41617C455.167 7.73008 455.604 8.51486 455.703 8.95303L455.756 9.18846H449.373L449.432 8.99227C449.571 8.52794 449.915 7.92628 450.259 7.55351C450.821 6.95184 451.483 6.65755 452.568 6.52675C452.614 6.52675 452.885 6.55945 453.17 6.60523M354.805 6.89298C356.214 7.57313 356.974 9.40428 356.564 11.1046C356.141 12.8246 354.897 13.8187 353.263 13.7271C351.98 13.6552 351.067 13.0143 350.499 11.7848C350.201 11.1439 350.194 11.1112 350.194 10.1367C350.194 9.16231 350.207 9.10999 350.446 8.58026C350.723 7.95244 351.299 7.28537 351.795 7.01724C352.41 6.68371 352.754 6.60523 353.541 6.63139C354.183 6.65101 354.388 6.69679 354.805 6.89298ZM367.26 6.9126C368.265 7.42271 368.953 8.44292 369.079 9.61355C369.244 11.1177 368.728 12.4388 367.703 13.1581C367.108 13.5767 366.592 13.7402 365.871 13.7402C364.521 13.7402 363.483 13.0273 362.921 11.7259C362.226 10.104 362.768 7.96552 364.085 7.12842C364.766 6.69679 365.123 6.59869 365.95 6.61831C366.625 6.63139 366.784 6.67063 367.253 6.9126M406.299 6.73603C406.828 6.92568 407.483 7.39655 407.787 7.79548C409.011 9.45006 408.687 12.0529 407.119 13.1581C406.524 13.5767 406.008 13.7402 405.287 13.7402C403.6 13.7402 402.304 12.5238 402.072 10.7253C401.841 8.93341 402.72 7.31153 404.235 6.74911C404.725 6.56599 405.79 6.55945 406.292 6.74911M429.721 6.76873C430.31 6.98454 430.746 7.28537 431.117 7.73662C432.221 9.09037 432.208 11.3008 431.09 12.6415C430.435 13.4263 429.582 13.786 428.511 13.7336C426.665 13.6421 425.441 12.1968 425.441 10.1302C425.441 8.47562 426.295 7.20689 427.737 6.72295C428.233 6.55291 429.212 6.57253 429.728 6.76873M442.606 10.176V13.4917H440.066C438.67 13.4917 437.526 13.4721 437.526 13.4524C437.526 13.4328 437.632 13.2301 437.764 13.0077C438.121 12.4061 438.3 11.824 438.697 10.0125C439.332 7.1088 439.537 6.87336 441.449 6.87336H442.6V10.1891L442.606 10.176ZM479.813 8.24673C481.136 8.50178 481.943 9.54815 481.943 10.9935C481.943 12.1118 481.473 12.9489 480.554 13.4655C480.17 13.6813 480.045 13.7075 479.324 13.7075C478.603 13.7075 478.47 13.6813 478.06 13.4655C476.208 12.4976 476.188 9.52853 478.027 8.5214C478.358 8.33829 478.781 8.21403 479.244 8.16171C479.29 8.16171 479.548 8.19441 479.806 8.24673M352.159 23.3995C351.987 23.6284 351.828 23.7004 351.028 23.9227C349.42 24.3674 348.865 24.7402 348.455 25.6623C348.144 26.3621 348.025 27.0226 348.031 28.0297C348.031 28.9518 348.137 29.5208 348.415 30.1159C348.799 30.9465 349.566 31.4697 350.512 31.5482C352.271 31.6986 353.528 30.5083 353.528 28.6837C353.528 27.5131 353.078 26.6891 352.185 26.2182C351.716 25.9697 351.57 25.937 350.988 25.937C350.406 25.937 350.254 25.9762 349.877 26.1724C349.46 26.3882 349.057 26.7741 348.865 27.1468C348.62 27.6177 348.739 26.6564 348.997 26.1005C349.381 25.2634 349.771 25.0149 351.378 24.5898C352.483 24.2955 352.761 24.132 352.939 23.6807C353.124 23.2099 353.091 23.1314 352.708 23.1314C352.423 23.1314 352.331 23.1772 352.165 23.3995M361.234 25.9239C360.453 26.0874 360.195 26.1986 360.262 26.3686C360.288 26.4405 360.334 26.604 360.361 26.7218C360.4 26.8918 360.447 26.9245 360.586 26.8853C361.657 26.5517 362.696 26.5125 363.099 26.7937C363.523 27.088 363.529 27.657 363.106 27.997C362.927 28.1344 362.729 28.1801 362.087 28.2063L361.28 28.239V28.9061H361.862C362.656 28.9126 363.106 29.0172 363.331 29.2527C363.767 29.6908 363.615 30.4233 363.04 30.6653C362.444 30.9203 361.333 30.8157 360.46 30.4233C360.275 30.3383 359.977 31.038 360.149 31.1558C360.42 31.3389 361.121 31.5089 361.796 31.5547C363.351 31.6528 364.224 31.1623 364.316 30.1356C364.363 29.6451 364.237 29.1742 364.012 28.9518C363.926 28.8668 363.675 28.736 363.45 28.651L363.046 28.5071L363.357 28.409C364.191 28.1409 364.495 27.0749 363.919 26.4209C363.483 25.9239 362.312 25.7081 361.227 25.937M373.114 25.8977C372.022 26.0939 371.295 26.9245 371.109 28.1671C370.898 29.5666 371.453 30.8157 372.518 31.3389C372.856 31.5024 373.054 31.5351 373.689 31.5351C374.595 31.5351 375.045 31.3454 375.614 30.7372L375.965 30.3644L375.7 30.0767L375.435 29.7889L375.005 30.2075C374.304 30.8942 373.391 30.9988 372.624 30.4756C372.227 30.2075 371.837 29.5077 371.837 29.0761V28.8341H376.051L376.004 28.2521C375.958 27.6308 375.865 27.3496 375.561 26.8395C375.131 26.1266 374.093 25.7277 373.12 25.9108M379.014 25.9108C378.213 26.0678 377.691 26.4209 377.294 27.0684C376.93 27.6635 376.805 28.1867 376.851 28.9518C376.917 30.0702 377.407 30.8615 378.306 31.3062C378.749 31.522 378.901 31.5547 379.576 31.5547C380.251 31.5547 380.403 31.522 380.806 31.3193L381.276 31.0838L381.104 30.7307C380.972 30.456 380.906 30.3906 380.8 30.4364C379.874 30.868 379.245 30.9073 378.637 30.5737C377.618 30.0178 377.314 28.5137 378.008 27.4477C378.471 26.7283 379.53 26.4732 380.456 26.8526C380.701 26.9507 380.906 27.0357 380.912 27.0357C380.978 27.0357 381.256 26.3882 381.21 26.3424C381.177 26.3032 380.959 26.1986 380.734 26.1005C380.238 25.8912 379.51 25.8127 379.007 25.9108M354.666 28.7099V31.4239H355.44L356.842 29.4031C357.616 28.2913 358.271 27.3823 358.31 27.3823C358.35 27.3823 358.376 28.2913 358.376 29.4031V31.4239H359.104V26.0024H358.376L356.954 28.0232C356.174 29.135 355.499 30.044 355.459 30.044C355.42 30.044 355.387 29.135 355.387 28.0232V26.0024H354.659V28.7164L354.666 28.7099ZM365.467 28.7099V31.4239H366.188L366.208 30.1944L366.228 28.9649L367.696 28.9388L369.171 28.9126V31.4108H369.978V25.9762L369.595 26.0024L369.211 26.0285L369.191 27.0814L369.171 28.1344H366.195V25.9828H365.467V28.6968V28.7099ZM374.112 26.6891C374.516 26.8068 374.893 27.1599 375.072 27.585C375.363 28.2652 375.429 28.2325 373.577 28.2325C372.671 28.2325 371.91 28.1998 371.89 28.1671C371.811 28.0297 372.082 27.415 372.34 27.1338C372.79 26.6564 373.444 26.4863 374.106 26.6825M351.729 26.918C352.152 27.1468 352.536 27.6177 352.642 28.0297C352.959 29.2592 352.45 30.3579 351.405 30.6784C350.432 30.9792 349.513 30.5606 349.057 29.5993C348.885 29.2396 348.858 28.409 349.01 27.9447C349.143 27.5262 349.672 26.9703 350.095 26.8068C350.545 26.6302 351.305 26.6825 351.735 26.9114" fill="white"/>
</g>
<defs>
<clipPath id="clip0_3_1256">
<rect width="484" height="33" fill="white"/>
</clipPath>
</defs>
</svg>
