<svg width="99" height="72" viewBox="0 0 99 72" fill="none" xmlns="http://www.w3.org/2000/svg">
<path d="M22.3376 58.4987C26.3116 63.5302 32.3351 65.2877 37.1868 65.2578C42.572 65.2388 47.4138 63.305 51.2684 59.9632C59.112 53.2522 62.4332 41.8591 64.1588 30.3128C65.2361 23.1264 65.6352 15.6605 65.4858 8.00786C65.4708 7.2962 64.6581 6.50793 64.1046 6.44139C63.3965 6.34661 63.0375 6.95535 63.0524 7.66701C63.162 14.1365 62.8327 20.4568 62.0646 26.6276C61.3415 32.2534 60.3341 37.758 58.6536 42.8631C55.3075 52.7127 48.9547 61.0275 38.957 62.2786C34.2598 62.8729 27.8724 61.8442 23.7937 56.6552C23.2851 56.0435 22.4623 56.0315 22.0883 56.4646C21.6196 57.0361 21.829 57.887 22.3376 58.4987Z" fill="#838383"/>
<path d="M83.4688 25.5539C78.8796 19.3145 74.2903 13.0751 69.701 6.83574C68.7583 5.54549 67.6618 3.69396 66.1738 3.81747C65.4199 3.85162 64.9537 4.41993 64.572 5.08966C64.1902 5.75939 63.853 6.42008 63.4911 7.14503C62.0284 9.87014 60.6302 12.6414 59.1675 15.3665C57.556 18.4772 55.9248 21.5326 54.3133 24.6433C54.0456 25.2307 54.4277 26.1605 55.0081 26.5762C55.653 27.0381 56.3028 26.8473 56.5705 26.2599C59.2132 21.2224 61.856 16.1848 64.4739 11.2116C65.1681 9.94542 65.7978 8.63308 66.4919 7.36692C66.5862 7.22936 66.8639 6.93616 66.8737 6.69719C66.9035 6.51344 66.9382 6.74338 66.8092 6.65101C66.3826 6.26343 66.6753 6.67812 66.6753 6.67812C66.6952 6.73334 67.2012 7.34181 67.2211 7.39704C67.5138 7.81173 67.7867 8.17119 68.0794 8.58588C70.1533 11.4244 72.2718 14.2539 74.3655 17.1477C76.732 20.4009 79.1433 23.6451 81.5099 26.8984C81.9911 27.5711 82.6856 27.9044 83.2311 27.557C83.737 27.0992 83.9302 26.1714 83.4688 25.5539Z" fill="#838383"/>
</svg>
