<svg width="31" height="31" viewBox="0 0 31 31" fill="none" xmlns="http://www.w3.org/2000/svg">
<path fill-rule="evenodd" clip-rule="evenodd" d="M15.9013 25.6379C17.653 24.7468 24.5417 20.8218 24.5417 14.2082C24.5417 9.2146 20.4936 5.1665 15.5 5.1665C10.5065 5.1665 6.45837 9.2146 6.45837 14.2082C6.45837 20.8218 13.3471 24.7468 15.0988 25.6379C15.3526 25.7671 15.6474 25.7671 15.9013 25.6379ZM15.5 18.0832C17.6401 18.0832 19.375 16.3483 19.375 14.2082C19.375 12.0681 17.6401 10.3332 15.5 10.3332C13.3599 10.3332 11.625 12.0681 11.625 14.2082C11.625 16.3483 13.3599 18.0832 15.5 18.0832Z" fill="#EC4A27"/>
</svg>
